<svg xmlns="http://www.w3.org/2000/svg" version="1.1" xmlns:xlink="http://www.w3.org/1999/xlink" xmlns:svgjs="http://svgjs.com/svgjs" width="512" height="512" x="0" y="0" viewBox="0 0 512 512" style="enable-background:new 0 0 512 512" xml:space="preserve" class=""><g><path d="M512 0h-63.541L422 13.229 395.541 0H271l-30 15h-82.918l-30-15H0v241l15 30v82.918l-15 30V512h256l26.459-13.229L308.918 512H512V308.918l-13.229-26.459L512 256V0zM135 422l-45-45v-90l135 135h-90zm272 0h-60l-38.885-45.694-8.019-32.568-30.866-13.126L256 315.066 90 120l30-30 136 102.225L422 317l-15 105zm15-197L287 90h90l45 45v90z" fill="#ffffff" data-original="#000000" opacity="1" class=""></path></g></svg>