<svg xmlns="http://www.w3.org/2000/svg" version="1.1" xmlns:xlink="http://www.w3.org/1999/xlink" xmlns:svgjs="http://svgjs.com/svgjs" width="512" height="512" x="0" y="0" viewBox="0 0 19.959 19.959" style="enable-background:new 0 0 512 512" xml:space="preserve" class=""><g><path d="M3.052 19.741c-.053 0-.264.043-.296.054-.021.009-.101.095-.167.164h16.075a1.628 1.628 0 0 1-.063-.218c-.021-.102-.095-.233-.199-.233-.106 0-.084-.044-.203-.143-.116-.099-.359-.441-.477-.583-.115-.145-.189-.09-.316-.145-.127-.054-.201.031-.245.055-.044.024-.22.189-.275.201a.406.406 0 0 0-.188.143c-.021.045-.18.122-.254.111-.074-.013-.36.063-.36.063l-.554.052c.047-.062.199-.27.211-.375.016-.129.058-.312.058-.312s.155-.592.183-.732c.028-.142.099-.408.099-.408s.099-.043.128-.199c.027-.154-.043-.354-.043-.354s.168-.479.254-.593c.086-.113.24-.279.296-.463.056-.187.113-.341.028-.468-.084-.127-.113-.252-.113-.252s.129.067.186.039c.057-.027.297-.225.297-.225l.295.156.043-.141s.466-.326.142-.819c-.327-.494-.705-.326-.86-.214-.156.115-.354.143-.338.185.012.045.041.099.041.099s-.084.057-.144-.014c-.054-.07-.197-.127-.252-.326-.056-.195-.168-.492-.339-.646-.168-.157-.62-.452-.846-.609-.227-.155-.312-.209-.467-.239-.156-.026-.281-.099-.381-.153-.1-.06-.254-.156-.254-.156l.014-.254s.281-.099.297-.155c.015-.056-.141-.085-.141-.085s-.1-.396-.48-.479c-.381-.086-.649.084-.649.084s.028-.438-.156-.761c-.185-.327-.338-.65-.338-.65s.113-.027.099-.098c-.014-.073-.113-.17-.184-.253-.07-.085-.016-.142-.126-.16-.112-.01-.168-.038-.168-.038l-.091-.144L7.929.292S8.014.069 7.83.013c-.183-.058-.197.096-.169.181.011.038.046.067.083.089-.007.116-.014.35.02.695-.297.284-1.487 1.415-1.881 1.684-.452.311-1.158.624-1.412.99-.255.366-.452.735-.932.847-.479.114-.788.114-1.381.366-.595.258-.847.649-.847.649s-.085.708.14 1.045c.228.338.311 1.015.311 1.015s.846-.945 1.666-.958c2.175-.038 1.858-.674 3.186-1.269 1.182-.528 2.268-.304 2.451-.335.955 1.992 1.676 2.872 2.188 3.733-.111.063-.223.143-.27.231-.033 0-.045.049-.055.106-.105.21-.223.471-.28.643-.026.079-.168.322-.344.599a5.802 5.802 0 0 0-.351.417c-.056.083-.117.223-.177.333a1.493 1.493 0 0 1-.261.274l-.099-.228s.115-.252.073-.366c-.043-.113-.172-.043-.172-.043s-.323-.295-.677-.125c-.351.168-.423.464-.323.746.099.282.295.396.295.396s.014.223-.11.236l-.003.001a1.361 1.361 0 0 0-.187.034c-.109-.005-.203-.025-.288-.04l-.297.104c-.065.127-.111.479-.155.841-.067.312-.133.61-.133.61s-.225.213-.324.229c-.1.014-.268.125-.381.268-.113.139-.494.424-.506.536-.016.113.083.196.026.253-.056.057-.1.113-.084.2.014.081.197.167.084.269-.113.098-.409.604-.48.774-.07.168-.381.595-.537.649a2.719 2.719 0 0 0-.607.381c-.098.101-.521.619-.718.732-.197.111-.495.465-.495.465s-.367.199-.409.269c-.043.071-.043.071-.029.158.014.084.311.393.368.551.031.086.062.179.111.251a.97.97 0 0 0-.123.04c-.04.024-.23.202-.283.202zm12.389-1.351s-.119.032-.119.064c0 .033-.096-.018-.096-.018l-.166-.53s.358-.195.393-.064l-.012.548zm0-2.432c.121-.012.23.021.23.021l-.034.438s-.261-.208-.372-.294c-.107-.09-.283-.209-.283-.209s.339.054.459.044zm-.902 2.15c.2-.072.289-.123.289-.123l.459 1.285c-.12-.03-.522-.244-.591-.336-.075-.099-.189-.11-.275-.152a.74.74 0 0 0-.251-.039.258.258 0 0 0-.093-.155c-.143-.112-.213-.269-.129-.297.084-.026.394-.11.591-.183zm-1.241-1.141s.085-.129.1-.227c.013-.099-.015-.187-.015-.187s.593.229.817.299c.228.068.145.164.145.164s-.326.4-.482.457c-.154.058-.366.156-.366.156s-.171.028-.282.083c-.111.058-.256.156-.256.156s.096.163.205.342a.236.236 0 0 1-.035.007c-.096.034-.139.178-.139.178s-.315.119-.357.153c-.042.035-.201.134-.212.179-.01.043-.308.109-.308.109s-.314.005-.519.018a1.73 1.73 0 0 1 .308-.435c.281-.283 1.396-1.452 1.396-1.452zM8.852 3.808c-.884-2.051-.82-2.723-.82-2.723l3.354 7.589c-.004.001-.007.005-.011.006-2.184-3.371-2.001-3.663-2.523-4.872zm1.924 12.488s1.088.557 1.099.622c.012.065-.336.36-.425.37-.086.012-.258.346-.356.402s-.383-.359-.383-.359.088-.107.033-.26c-.054-.154-.075-.653-.075-.653s-.055-.308.107-.122zM3.843 18.63l.394.184s1.073-1.184 1.469-1.453c.395-.268 1.58-1.353 1.58-1.353l.297.056s-.438.957-.608 1.115c-.167.151-.506.336-.69.506-.183.17-.48.592-.592.734a1.419 1.419 0 0 1-.325.266l-.128.116-.492.265s.123.188.247.36c-.245.019-.49.077-.671.127a5.524 5.524 0 0 0-.368-.083c-.057-.021-.177-.094-.209-.316a.828.828 0 0 1 .096-.524z" fill="#ffffff" data-original="#000000" opacity="1" class=""></path></g></svg>