<svg xmlns="http://www.w3.org/2000/svg" version="1.1" xmlns:xlink="http://www.w3.org/1999/xlink" xmlns:svgjs="http://svgjs.com/svgjs" width="512" height="512" x="0" y="0" viewBox="0 0 192.29 208.81" style="enable-background:new 0 0 512 512" xml:space="preserve" class=""><g><path d="M82.713 39.629a80.437 80.437 0 0 0 7.9 4.267c.078-.03.157-.057.235-.088 11.527-4.635 17.111-17.738 12.477-29.264C98.688 3.019 85.585-2.567 74.059 2.069c-6.128 2.464-10.576 7.322-12.702 13.063 1.379 4.09 3.474 7.918 6.342 11.568 3.759 4.771 8.81 9.12 15.014 12.929z" fill="#ffffff" data-original="#000000" opacity="1" class=""></path><path d="M184.233 182.59c-25.417-9.776-37.376-23.912-43.953-36.59a65.406 65.406 0 0 1-6.619-21.356c3.501-3.077 5.994-7.887 6.288-15.564-.844-22.348-4.3-35.102-14.112-53.996-5.679-10.779-14.9-14.738-22.525-14.275a8.038 8.038 0 0 0-1.868.207 17.062 17.062 0 0 0-3.874 1.092c-1.634.687-3.002 1.749-4.131 3.064 7.059 3.04 12.453 4.313 12.529 4.329 2.667.603 4.89 2.168 6.317 4.425a9.933 9.933 0 0 1 1.309 7.542c-1.019 4.522-5.119 7.805-9.75 7.805-.738 0-1.478-.081-2.202-.243-1.408-.328-8.621-2.107-17.691-6.185a106.161 106.161 0 0 1-9.899-5.103 41.61 41.61 0 0 1-9.999 1.215C57.171 58.948 49.2 57.33 39.92 52.61a7.998 7.998 0 0 0-10.76 3.492 7.998 7.998 0 0 0 3.492 10.763c11.272 5.761 21.891 8.094 31.349 8.094h.052c11.355 0 20.822-3.293 28.057-7.219 4.472 12.309 11.32 29.231 12.667 45.205L72.149 134.86a12.489 12.489 0 0 0-5.309 12.724l9.76 51.068c1.144 5.988 6.387 10.157 12.267 10.157.778 0 1.566-.073 2.358-.225 6.781-1.297 11.228-7.844 9.933-14.624l-.002-.002-8.21-42.952 18.05-12.122a91.727 91.727 0 0 0 7.015 18.477c8.868 17.598 26.433 36.935 57.331 48.592 6.45 2.455 13.672-.784 16.127-7.235 2.455-6.452-.783-13.673-7.236-16.128z" fill="#ffffff" data-original="#000000" opacity="1" class=""></path><path d="M43.283 17.519c2.19 8.193 6.115 15.234 10.851 21.036 9.154 11.207 21.065 18.136 30.638 22.465 9.588 4.309 16.947 5.972 17.308 6.057a8.004 8.004 0 0 0 9.563-6.048 7.999 7.999 0 0 0-6.049-9.56v-.003l-.05-.01c-.949-.207-12.548-3.129-23.877-10.121-5.672-3.482-11.245-7.947-15.54-13.399-4.204-5.35-7.228-11.555-8.32-19.197l1.839-1.112 2.074-1.254L57.863 0l-2.071 1.253-1.881 1.138a7.95 7.95 0 0 0-5.144-1.087c-4.2.537-7.209 4.241-6.959 8.407l-1.892 1.144-2.063 1.248 3.416 5.653.434.718zM42.506 24.5l-6.773-11.195L0 34.918C22.883 38.322 42.506 24.5 42.506 24.5z" fill="#ffffff" data-original="#000000" opacity="1" class=""></path></g></svg>