<svg xmlns="http://www.w3.org/2000/svg" version="1.1" xmlns:xlink="http://www.w3.org/1999/xlink" xmlns:svgjs="http://svgjs.com/svgjs" width="512" height="512" x="0" y="0" viewBox="0 0 128 128" style="enable-background:new 0 0 512 512" xml:space="preserve" class=""><g><path d="m91.514 13.05-5.683 5.683a6.188 6.188 0 0 0 0 8.744l14.692 14.692a6.188 6.188 0 0 0 8.744 0l5.683-5.684a1.75 1.75 0 0 0 0-2.474L93.989 13.05a1.8 1.8 0 0 0-2.475 0zm19.724 22.2-4.446 4.446a2.752 2.752 0 0 1-3.794 0L88.306 25a2.687 2.687 0 0 1 0-3.794l4.445-4.446z" fill="#ffffff" data-original="#000000" opacity="1" class=""></path><path d="M127.487 34.011 93.989.513a1.749 1.749 0 0 0-2.475 0L79.562 12.465a15.048 15.048 0 0 0 0 21.28l2.289 2.289L43.5 74.386 29.261 60.147a1.75 1.75 0 0 0-2.474 0L13.333 73.6a45.339 45.339 0 0 0-9.75 49.884 1.756 1.756 0 0 0 .932.932 45.353 45.353 0 0 0 49.884-9.75l13.454-13.453a1.749 1.749 0 0 0 0-2.475L53.614 84.5l38.352-38.351 2.288 2.289a15.049 15.049 0 0 0 21.281 0l11.952-11.953a1.748 1.748 0 0 0 0-2.474zM64.141 99.977l-12.216 12.215a41.847 41.847 0 0 1-45.389 9.273 41.845 41.845 0 0 1 9.272-45.39l12.216-12.216 13 13-6.066 6.066a6.937 6.937 0 0 0 0 9.809l.306.306a6.935 6.935 0 0 0 9.809 0l6.066-6.066zm-21.393-9.56a3.652 3.652 0 0 1-5.165-5.165l7.154-7.152 39.589-39.591 5.165 5.165zm70.312-44.454a11.548 11.548 0 0 1-16.331 0l-3.524-3.524-7.642-7.639-3.526-3.526a11.548 11.548 0 0 1 0-16.331L92.751 4.225l31.024 31.023z" fill="#ffffff" data-original="#000000" opacity="1" class=""></path><path d="M14.641 94.852a1.746 1.746 0 0 0-2.175 1.181 34.291 34.291 0 0 0-.256 18.514 1.75 1.75 0 0 0 3.383-.9 30.788 30.788 0 0 1 .23-16.625 1.748 1.748 0 0 0-1.182-2.17z" fill="#ffffff" data-original="#000000" opacity="1" class=""></path></g></svg>