<svg xmlns="http://www.w3.org/2000/svg" version="1.1" xmlns:xlink="http://www.w3.org/1999/xlink" xmlns:svgjs="http://svgjs.com/svgjs" width="512" height="512" x="0" y="0" viewBox="0 0 657.456 327.457" style="enable-background:new 0 0 512 512" xml:space="preserve" class=""><g><path d="M396.057 97.403a6.873 6.873 0 1 0 13.746 0 6.873 6.873 0 0 0-13.746 0z" fill="#ffffff" data-original="#000000" opacity="1" class=""></path><path d="M436.52 108.435a10.98 10.98 0 0 0 .195 7.115c2.132 5.712 8.49 8.615 14.203 6.484a10.99 10.99 0 0 0 5.754-4.925 11.033 11.033 0 0 1-4.118 5.715 11.005 11.005 0 0 0 9.127.653c5.713-2.132 8.616-8.49 6.484-14.204-1.128-3.024-3.447-5.25-6.222-6.369a7.15 7.15 0 0 0-.092-4.748 7.161 7.161 0 0 0-3.743-4.021 12.825 12.825 0 0 1-7.231 6.773c-.506.188-1.017.332-1.529.454 5.051-3.18 7.357-9.567 5.188-15.38-.075-.2-.169-.389-.252-.584a18.441 18.441 0 0 0 3.243-2.944c2.797-3.223 4.502-7.419 4.502-12.021 0-10.143-8.222-18.365-18.365-18.365-2.752 0-5.353.622-7.696 1.707a18.3 18.3 0 0 0-11.335-5.262 21.336 21.336 0 0 0-4.39-15.784c-7.286-9.308-20.738-10.949-30.047-3.663a21.479 21.479 0 0 0-2.167 1.98 22.752 22.752 0 0 0-3.28-5.763c-7.75-9.904-22.062-11.649-31.966-3.898-4.716 3.691-7.558 8.875-8.43 14.358a13.93 13.93 0 0 0-3.546-.575 14.029 14.029 0 0 0-2.675-7.913c-4.57-6.306-13.386-7.714-19.692-3.144a14.03 14.03 0 0 0-5.501 8.482c-5.26-3.838-12.617-3.913-17.997.298-6.496 5.084-7.64 14.47-2.557 20.966 5.084 6.496 14.47 7.64 20.966 2.557 3.032-2.373 4.88-5.686 5.492-9.202a14.114 14.114 0 0 0 7.741 2.402 13.781 13.781 0 0 0 2.921 7.952c3.65 4.664 9.687 6.34 15.026 4.682-.086.467-.179.931-.235 1.402a22.696 22.696 0 0 0 4.675 16.746c7.75 9.904 22.062 11.649 31.966 3.898a22.638 22.638 0 0 0 6.415-7.965c.27-.556.518-1.119.741-1.692a11.938 11.938 0 0 0 9.901 5.257c3.602 0 6.824-1.6 9.015-4.12 3.146 5.599 9.133 9.387 16.012 9.387 2.752 0 5.353-.622 7.696-1.707.202.2.42.383.632.574a12.84 12.84 0 0 0-.924 10.95c1.635 4.382 5.407 7.33 9.69 8.137a11.043 11.043 0 0 0-3.595 5.32z" fill="#ffffff" data-original="#000000" opacity="1" class=""></path><circle cx="439.461" cy="41.064" r="4.79" fill="#ffffff" data-original="#000000" opacity="1" class=""></circle><circle cx="404.787" cy="13.796" r="4.708" fill="#ffffff" data-original="#000000" opacity="1" class=""></circle><path d="M622.629 203.516h18.874v22.364h-18.874zM630.341 183.485a4.989 4.989 0 1 0 9.978.002 4.989 4.989 0 0 0-9.978-.002zM625.699 185.426a3.672 3.672 0 1 0 0 7.344 3.672 3.672 0 0 0 0-7.344zM626.773 195.536a2.067 2.067 0 1 0 0 4.135 2.067 2.067 0 0 0 0-4.135zM643.887 140.181c-.234 0-.464-.017-.693-.035 4.44-.354 7.933-4.06 7.933-8.591 0-4.53-3.493-8.237-7.933-8.591a8.72 8.72 0 0 0-.693-.035c-3.413 0-6.355 1.988-7.754 4.865a11.848 11.848 0 0 0-5.098-1.159c-3.783 0-7.147 1.768-9.33 4.517a6.092 6.092 0 0 1 2.857 4.159 6.096 6.096 0 0 0-11.681 2.445c0 .362.037.715.098 1.06a6.094 6.094 0 0 0 5.999 5.038c.455 0 .896-.054 1.323-.148 1.607 3.34 4.715 5.817 8.458 6.541a8.74 8.74 0 0 0-.22 1.921c0 4.086 2.812 7.507 6.604 8.458a8.714 8.714 0 0 0 1.747.253 6.897 6.897 0 0 0-.59 2.79 6.93 6.93 0 0 0 5.472 6.773c-.115.006-.228.018-.345.018a6.91 6.91 0 0 1-5.463-2.677c-1.528.852-2.574 2.465-2.574 4.34a4.989 4.989 0 0 0 9.977 0c0-.538-.107-1.046-.264-1.53.042 0 .083.006.125.006a6.929 6.929 0 0 0 1.384-13.72 8.667 8.667 0 0 0 1.316-3.64 8.732 8.732 0 0 1-6.229-6.52c.226-.24.444-.485.649-.743.998 3.723 4.386 6.469 8.424 6.469 3.21 0 6.007-1.738 7.524-4.318a8.677 8.677 0 0 0 1.206-4.412 8.722 8.722 0 0 0-4.801-7.789c-1.5 2.544-4.261 4.255-7.428 4.255zM634.914 121.266a3.464 3.464 0 1 0-6.928-.001 3.464 3.464 0 0 0 6.928 0zM622.72 122.72a4.92 4.92 0 1 0-9.838 0 4.92 4.92 0 0 0 9.838 0zM531.275 189.677l.948 2.083 4.599 10.106.331.728v23.285h9.557v-13.17h25.446v13.17h46.86v-7.061h-5.154v-4.83h-11.203v4.83H587.62v-7.115h-11.582v-5.913h-6.456v-15.425l-15.423-13.269v26.218h-4.07v-4.117h-5.734v-11.819h-21.4v2.025l6.033.199zM420.374 178.531v9.066H429.536l.273 3.391.546 6.806 5.967 2.327.551.215v-21.805zM349.716 165.369v19.87l2.15 4.838 3.764 3.806 1.745 1.764-.058.137.165-.029 1.357 1.372 4.148 4.193v-37.256zM497.25 218.26v-14.051h7.508V179.495h2.415v-20.69h-11.837v59.454zM443.79 213.108l3.536 1.631 2.142.989v10.151h8.75V218.26H472.808l1.105 1.5 1.903 2.581 3.566.45.854.11v-4.641h11.177v-22.928h-17.035c-.82-.505-1.777-.81-2.81-.81s-1.99.305-2.811.81h-3.282v-41.04h-3.08l-18.606 1.83v56.987zM401.336 164.24v44.42h-16.263v-15.858h-16.264v10.749h-4.387v9.798l8.666 5.447a44.554 44.554 0 0 1 3.894 2.779v-1.624H395.713v5.928h12.462v-38.282h8.424v-23.358h-15.263z" fill="#ffffff" data-original="#000000" opacity="1" class=""></path><path d="M568.469 216.396h-18.072v13.17h-16.931v-26.172l-4.6-10.107-11.08-.365-3.653-9.74h-5.689v24.714h-7.506v14.05h-17.015v7.62h-5.004v-3.117l-5.133-.65-2.84-3.853h-9.041v7.62H445.78v-11.48l-5.278-2.434-2.192-3.816-3.329-1.46v-6.82l-8.117-3.166-.731-9.107h-14.272v38.283h-19.836v-5.928H380.67v1.19a44.636 44.636 0 0 1 8.278 11.188l1.078 2.076h267.43v-8.526h-88.987v-13.17zM360.735 211.031v-6.745l-4.517-4.566-4.972.873 1.763-4.117-4.239-4.285-3.978-8.952h-13.657v9.186zM403.402 245.439l12.22-1.014 1.686-2.494-15.802 1.403-9.177-.803 1.198 2.306zM483.654 246.976l20.343 1.637 9.254-1.014 1.277-2.495-11.967 1.404-22.258-2.573-13.402.234 7.18 4.21zM456.053 242.433l-.43 2.578 2.836 1.632 3.436-.859-2.491-3.179zM440.873 247.666l-2.451-.126-.314 1.885 2.073 1.194 2.514-.628zM521.285 240.98l.05.799.047.752 1.842 1.745 2.23-.873-.762-1.624-.693-1.477zM447.51 241.779l-3.212 4.505 3.705.494 4.207-3.38-3.642-1.619-.804-.357zM427.69 241.779l-.658 2.847 3.705.494 1.482-1.729-3.627-1.612-.819-.364zM585.378 241.03l-.125.749-.305 1.828 2.836 1.633 3.436-.86-2.039-2.601-.452-.578zM575.482 241.779l-.703 3.047 3.705.494 1.482-1.73-4.076-1.811-.37-.164zM541.29 241.779l-.32 1.39 3.704.493 1.482-1.729-.347-.154-4.099-1.822zM606.178 196.133c1.954-4.06.11-7.248-2.049-11.217.98 3.928 1.822 7.644-.727 10.578-2.105-1.399-2.25-4.61-1.437-6.775-2.104 3.217-2.992 7.27-.376 10.614 2.01 2.336 4.02 4.672 1.903 8.007 1.676-1.338 1.766-3.37 1.687-4.917-.22-1.325-.956-2.228-.695-3.622.213-.925 1.246-1.766 1.694-2.668zM617.46 205.72c2.645-2.011 1.482-6.306.765-7.19.21 2.496-.897 4.81-1.848 5.185 1.042-2.685.908-5.572-3.225-8.665 1.678 2.515 3.065 6.285.849 8.204-.823-.466-1.032-1.88-1.105-2.683-1.867 3.377 1.258 10.428 3.51 12.181-.508-1.635-.283-6.017 1.054-7.033z" fill="#ffffff" data-original="#000000" opacity="1" class=""></path><path d="M382.403 239.414a37.261 37.261 0 0 0-13.239-14.375l-18.257-11.476-51.893 2.982-.3-5.224 44.553-2.56-13.545-8.514-67.339 3.87-.3-5.224 59.999-3.448-20.66-12.987-6.354.427-5.77-12.157 21.582-4.26-.458-4.646 179.022-17.599-1.024-10.416-179.022 17.6-.456-4.648-31.008.035-5.924-12.48a6.854 6.854 0 0 0-6.685-3.896l-15.035 1.09-6.905-12.947a7.027 7.027 0 0 0-6.795-3.694l-30.754 2.618a7.026 7.026 0 0 0-6.369 6.072l-1.565 11.745-14.696 1.065V86.129h-6.105v50.68l-6.978.506v-31.78h-6.105v32.222l-7.014.508a6.854 6.854 0 0 0-6.247 5.608l-8.975 49.3-91.821 6.162a16.767 16.767 0 0 0-13.005 7.698L7.501 253.104h382.01zM373.467 259.796v3.318h-4.428v-3.318h-4.428v3.318h-4.428v-3.318h-4.429v3.318h-4.428v-3.318h-4.428v3.318h-4.428v-3.318h-4.429v3.318h-4.428v-3.318h-4.428v3.318h-4.428v-3.318h-4.428v3.318H315.9v-3.318h-4.428v3.318h-4.428v-3.318h-4.428v3.318h-4.429v-3.318h-4.428v3.318h-4.428v-3.318h-4.428v3.318h-4.429v-3.318h-4.428v3.318h-4.428v-3.318h-4.428v3.318h-4.429v-3.318h-4.428v3.318h-4.428v-3.318h-4.428v3.318h-4.428v-3.318h-4.429v3.318h-4.428v-3.318h-4.428v3.318h-4.428v-3.318h-4.429v3.318h-4.428v-3.318h-4.428v3.318h-4.428v-3.318h-4.429v3.318h-4.428v-3.318h-4.428v3.318h-4.428v-3.318h-4.429v3.318h-4.428v-3.318h-4.427v3.318h-4.429v-3.318h-4.428v3.318h-4.429v-3.318h-4.427v3.318h-4.429v-3.318h-4.428v3.318h-4.429v-3.318H143.2v3.318h-4.429v-3.318h-4.428v3.318h-4.429v-3.318h-4.427v3.318h-4.429v-3.318h-4.428v3.318h-4.428v-3.318h-4.428v3.318h-4.428v-3.318h-4.429v3.318H94.49v-3.318h-4.428v3.318h-4.428v-3.318h-4.429v3.318h-4.428v-3.318h-4.428v3.318H67.92v-3.318H63.49v3.318h-4.428v-3.318h-4.428v3.318h-4.428v-3.318h-4.429v3.318H41.35v-3.318h-4.428v3.318h-4.428v-3.318h-4.428v3.318h-4.429v-3.318H19.21v3.318h-2.627c-.606 0-1.206.042-1.796.122l-.373-2.758-.072-.53a16.56 16.56 0 0 0-2.444.53c-.968.285-1.912.65-2.819 1.11l1.501 2.96a13.228 13.228 0 0 0-3.542 2.62l-2.391-2.302a16.64 16.64 0 0 0-3.11 4.544l3.015 1.397a13.245 13.245 0 0 0-1.162 4.25l-3.307-.331a16.555 16.555 0 0 0 .372 5.5l3.232-.773a13.26 13.26 0 0 0 1.725 4.054l-2.799 1.795 2.476 3.734 2.765-1.835 2.449 3.69-2.765 1.834 2.45 3.69 2.764-1.835 2.448 3.69-2.764 1.835 2.449 3.69 2.764-1.836 2.45 3.69-2.765 1.835 2.448 3.69 2.765-1.836 2.449 3.69-2.765 1.835 1.552 2.338c.35.527.724 1.043 1.11 1.533l2.612-2.06a19.625 19.625 0 0 0 3.103 3.143l-2.082 2.585a22.85 22.85 0 0 0 4.37 2.765l1.448-2.994c1.324.64 2.72 1.131 4.167 1.462l-.742 3.243c1.68.384 3.406.579 5.132.579h.076v-3.319h4.429v3.319h4.428v-3.319h4.428v3.319h4.428v-3.319h4.428v3.319h4.429v-3.319h4.428v3.319h4.428v-3.319h4.428v3.319h4.429v-3.319h4.428v3.319h4.428v-3.319h4.428v3.319h4.429v-3.319h4.428v3.319h4.428v-3.319h4.428v3.319h4.428v-3.319h4.429v3.319h4.428v-3.319h4.428v3.319h4.428v-3.319h4.429v3.319h4.428v-3.319h4.428v3.319h4.428v-3.319h4.429v3.319h4.428v-3.319h4.428v3.319h4.428v-3.319h4.429v3.319h4.428v-3.319h4.428v3.319h4.428v-3.319h4.428v3.319h4.429v-3.319h4.427v3.319h4.43v-3.319h4.427v3.319h4.429v-3.319h4.427v3.319h4.43v-3.319h4.427v3.319h4.429v-3.319h4.427v3.319h4.43v-3.319h4.427v3.319h4.429v-3.319h4.427v3.319h4.43v-3.319h4.427v3.319h4.428v-3.319h4.428v3.319h4.428v-3.319h4.429v3.319h4.428v-3.319h4.428v3.319h4.428v-3.319h4.429v3.319h4.428v-3.319h4.428v3.319h4.428v-3.319h4.429v3.319h4.428v-3.319h4.428v3.319h4.428v-3.319h4.428v3.319h4.429v-3.319h4.428v3.319h2.841c.612 0 1.234-.025 1.849-.075l-.264-3.315c1.486-.12 2.94-.4 4.335-.84l1 3.167a22.886 22.886 0 0 0 4.721-2.103l-1.688-2.866a19.545 19.545 0 0 0 3.527-2.656l2.288 2.416a23.086 23.086 0 0 0 3.327-3.95l-2.763-1.84.022-.03 2.428-3.66 2.765 1.835 2.45-3.69-2.766-1.835 2.45-3.69 2.765 1.836 2.448-3.69-2.765-1.835 2.449-3.69 2.764 1.836 2.45-3.689-2.765-1.836 2.448-3.69 2.765 1.836 2.449-3.689-2.765-1.836 1.441-2.17c.34-.512.64-1.04.901-1.583l2.989 1.444a16.52 16.52 0 0 0 1.536-5.297l-3.298-.38a13.23 13.23 0 0 0-.23-4.401l3.238-.724a16.631 16.631 0 0 0-2.077-5.102l-2.826 1.744a13.244 13.244 0 0 0-2.903-3.312l2.1-2.576a16.543 16.543 0 0 0-4.793-2.724l-1.137 3.122a13.257 13.257 0 0 0-4.333-.798l.026-2.643.007-.68zM33.573 294.685c-5.961 0-10.793-4.833-10.793-10.794s4.832-10.793 10.793-10.793c5.96 0 10.793 4.833 10.793 10.793s-4.832 10.794-10.793 10.794zm18.57-1.06c0-11.336 9.191-20.527 20.528-20.527s20.528 9.19 20.528 20.528c0 11.337-9.19 20.528-20.528 20.528s-20.527-9.191-20.527-20.528zm70.313 20.529c-11.337 0-20.528-9.191-20.528-20.528 0-11.337 9.19-20.528 20.528-20.528 11.337 0 20.527 9.19 20.527 20.528 0 11.337-9.19 20.528-20.527 20.528zm49.784 0c-11.337 0-20.528-9.191-20.528-20.528 0-11.337 9.191-20.528 20.528-20.528s20.527 9.19 20.527 20.528c0 11.337-9.19 20.528-20.527 20.528zm29.257-20.528c0-11.337 9.19-20.528 20.527-20.528 11.337 0 20.528 9.19 20.528 20.528 0 11.337-9.19 20.528-20.528 20.528-11.337 0-20.527-9.191-20.527-20.528zm70.312 20.528c-11.337 0-20.528-9.191-20.528-20.528 0-11.337 9.19-20.528 20.528-20.528s20.527 9.19 20.527 20.528c0 11.337-9.19 20.528-20.527 20.528zm49.784 0c-11.337 0-20.528-9.191-20.528-20.528 0-11.337 9.191-20.528 20.528-20.528s20.528 9.19 20.528 20.528c0 11.337-9.191 20.528-20.528 20.528zm28.305-30.263c0-5.96 4.832-10.793 10.793-10.793s10.793 4.833 10.793 10.793-4.832 10.794-10.793 10.794-10.793-4.833-10.793-10.794z" fill="#ffffff" data-original="#000000" opacity="1" class=""></path><path d="M321.593 279.136c-8.003 0-14.49 6.487-14.49 14.49s6.487 14.49 14.49 14.49 14.49-6.487 14.49-14.49-6.487-14.49-14.49-14.49zm0 19.924a5.434 5.434 0 1 1 0-10.868 5.434 5.434 0 0 1 0 10.868zM271.809 279.136c-8.003 0-14.49 6.487-14.49 14.49s6.487 14.49 14.49 14.49 14.49-6.487 14.49-14.49-6.488-14.49-14.49-14.49zm0 19.924a5.434 5.434 0 1 1 0-10.868 5.434 5.434 0 0 1 0 10.868zM222.024 279.136c-8.002 0-14.49 6.487-14.49 14.49s6.488 14.49 14.49 14.49 14.49-6.487 14.49-14.49-6.487-14.49-14.49-14.49zm0 19.924a5.434 5.434 0 1 1 0-10.868 5.434 5.434 0 0 1 0 10.868zM172.24 279.136c-8.003 0-14.49 6.487-14.49 14.49s6.487 14.49 14.49 14.49 14.49-6.487 14.49-14.49-6.487-14.49-14.49-14.49zm0 19.924a5.434 5.434 0 1 1 0-10.868 5.434 5.434 0 0 1 0 10.868zM122.456 279.136c-8.003 0-14.49 6.487-14.49 14.49s6.487 14.49 14.49 14.49 14.49-6.487 14.49-14.49-6.488-14.49-14.49-14.49zm0 19.924a5.434 5.434 0 1 1 0-10.868 5.434 5.434 0 0 1 0 10.868zM72.671 279.136c-8.002 0-14.49 6.487-14.49 14.49s6.488 14.49 14.49 14.49 14.49-6.487 14.49-14.49-6.487-14.49-14.49-14.49zm0 19.924a5.434 5.434 0 1 1 0-10.868 5.434 5.434 0 0 1 0 10.868zM33.573 276.273a7.619 7.619 0 1 0 0 15.237 7.619 7.619 0 0 0 0-15.237zm0 10.475a2.857 2.857 0 1 1 0-5.714 2.857 2.857 0 0 1 0 5.715zM368.31 283.891a7.619 7.619 0 1 0-15.238 0 7.619 7.619 0 0 0 15.238 0zm-10.476 0a2.857 2.857 0 1 1 5.714 0 2.857 2.857 0 0 1-5.714 0zM576.287 99.071c-2.408-3.323-6.94-4.189-10.387-2.099.305-.31.632-.605.996-.869a7.828 7.828 0 0 1 10.932 1.745c.028.04.05.081.078.12 2.644-5.824 2.184-12.86-1.837-18.409-5.277-7.282-14.893-9.544-22.738-5.835a15.054 15.054 0 0 0-2.814-7.634c-.079-.108-.168-.203-.249-.309a15.236 15.236 0 0 0 2.611-1.521c6.773-4.908 8.29-14.382 3.379-21.159-4.91-6.774-14.387-8.285-21.16-3.378-.283.206-.544.431-.81.652a22.533 22.533 0 0 0-4.065-3.665c5.49-6.995 6.565-16.878 1.937-25.123-6.131-10.923-19.963-14.815-30.893-8.68-5.282 2.965-8.912 7.732-10.567 13.098-6.025-3.012-13.474-2.66-19.306 1.566-8.347 6.048-10.21 17.717-4.161 26.064a18.586 18.586 0 0 0 10.395 7.105c-1.163 5.959.031 12.36 3.874 17.663 6.24 8.612 17.387 11.524 26.827 7.72a22.707 22.707 0 0 0 14.918.966 15.083 15.083 0 0 0 2.733 6.781 15.065 15.065 0 0 0 6.256 5.003c.57-.635 1.21-1.223 1.928-1.744 3.888-2.818 8.874-2.992 12.85-.89a12.151 12.151 0 0 0-10.079 1.956c-5.448 3.948-6.663 11.564-2.715 17.013a12.111 12.111 0 0 0 4.164 3.605 12.211 12.211 0 0 0 8.087 1.183 13.878 13.878 0 0 0-.544 3.67c3.812-2.186 8.524-1.784 11.903.84-3.384-1.509-7.455-1.23-10.671 1.1-4.799 3.477-5.87 10.187-2.392 14.985.612.846 1.33 1.569 2.114 2.178.611.475 1.262.883 1.948 1.21a9.555 9.555 0 0 0 2.225 6.677 7.848 7.848 0 0 0-1.708.343 7.91 7.91 0 0 0-5.464 6.936 7.904 7.904 0 0 0 3.855 7.39 7.23 7.23 0 0 1-5.368-4.434 6.722 6.722 0 0 0-1.06 11.558 6.692 6.692 0 0 0 3.416 1.249 6.734 6.734 0 0 0 7.219-6.211 6.75 6.75 0 0 0-.011-1.052c.383-.007.759-.049 1.129-.11a7.913 7.913 0 0 0 6.162-5.162c.637.23 1.313.385 2.022.438a7.66 7.66 0 0 0 5.887-13.153c.451-.997.749-2.083.836-3.237a9.542 9.542 0 0 0-1.312-5.596 9.64 9.64 0 0 0-2.39-2.71 13.809 13.809 0 0 0 3.579-1.864c6.182-4.48 7.562-13.124 3.082-19.306-.062-.085-.132-.16-.196-.243a13.808 13.808 0 0 1 2.81 2.877c.382.526.705 1.075 1.002 1.632.363-.263.69-.557.994-.867 2.623-2.675 3.022-6.926.75-10.063z" fill="#ffffff" data-original="#000000" opacity="1" class=""></path><path d="M517.475 83.716a3.667 3.667 0 1 0 4.303 5.938 3.667 3.667 0 0 0-4.303-5.938zM539.464 164.964a3.687 3.687 0 1 0-.552 7.354 3.687 3.687 0 0 0 .552-7.354zM583.972 123.735a3.788 3.788 0 1 0-4.445-6.134 3.788 3.788 0 0 0 4.445 6.134zM556.035 157.623a1.987 1.987 0 1 0-.298 3.962 1.987 1.987 0 0 0 .298-3.962zM568.054 66.478a3.68 3.68 0 1 0-4.319-5.96 3.68 3.68 0 0 0 4.319 5.96z" fill="#ffffff" data-original="#000000" opacity="1" class=""></path><circle cx="447.04" cy="21.662" r="7.579" transform="rotate(-37.32 447.168 21.68)" fill="#ffffff" data-original="#000000" opacity="1" class=""></circle></g></svg>