<?xml version="1.0" encoding="UTF-8"?>
<svg xmlns="http://www.w3.org/2000/svg" fill="none" height="39" width="151">
 <clipPath id="a">
  <path d="m0 0h150.93v39h-150.93z"/>
 </clipPath>
 <g clip-path="url(#a)">
  <path d="m63.78 29.286h-4.928l-7.013-19.857h3.633l5.605 16.364h.563l5.802-16.363h3.577l-7.238 19.857zm16.623-10.28 9.126 10.28h-4.45l-7.436-8.506h-.845v8.506h-3.38v-19.857h3.38v8.084h.817l7.041-8.084h4.168l-8.42 9.576zm17.165 10.28v-19.857h7.041c1.352 0 2.572.291 3.662.873 1.107.564 1.971 1.352 2.591 2.366.619 1.014.929 2.169.929 3.465 0 1.276-.31 2.431-.929 3.464-.62 1.014-1.484 1.812-2.591 2.394-1.09.563-2.31.845-3.662.845h-3.661v6.45zm7.041-9.548c1.108 0 2-.329 2.676-.986.694-.676 1.042-1.55 1.042-2.62s-.348-1.934-1.042-2.59c-.676-.677-1.568-1.015-2.676-1.015h-3.661v7.21h3.661zm13.11 9.548h-3.239v-19.857h3.239zm9.77-14.928c1.878 0 3.352.592 4.422 1.774 1.089 1.165 1.634 2.808 1.634 4.93v8.224h-2.394l-.676-2.31c-.413.695-1.024 1.305-1.831 1.831-.807.507-1.765.76-2.873.76-.976 0-1.859-.197-2.647-.591a4.408 4.408 0 0 1 -1.803-1.662c-.432-.713-.648-1.52-.648-2.422 0-1.39.545-2.497 1.634-3.323 1.108-.845 2.713-1.268 4.816-1.268h3.155c-.076-.976-.376-1.746-.902-2.31-.507-.582-1.192-.873-2.056-.873-.695 0-1.295.17-1.802.507-.507.338-.883.751-1.127 1.24l-2.986-.507c.357-1.24 1.09-2.216 2.197-2.93 1.127-.713 2.423-1.07 3.887-1.07zm-.957 12.477c1.126 0 2.037-.366 2.732-1.098.694-.732 1.042-1.7 1.042-2.901h-3.07c-2.197 0-3.296.638-3.296 1.915 0 .639.235 1.145.705 1.521.469.376 1.098.563 1.887.563zm20.398-12.195h3.295l-5.999 16.477c-.507 1.389-1.164 2.394-1.972 3.013-.788.62-1.849.93-3.182.93h-2.225l-.282-2.958h2.732c.544 0 .958-.122 1.239-.366.301-.225.554-.629.761-1.211l.169-.45-6.507-15.435h3.465l4.309 10.562h.451z" fill="#fff"/>
  <path d="m20.319 0c8.814 0 13.221 0 15.951 2.73s2.73 7.137 2.73 15.951v1.638c0 8.814 0 13.221-2.73 15.951s-7.137 2.73-15.951 2.73h-1.638c-8.814 0-13.221 0-15.951-2.73s-2.73-7.137-2.73-15.95v-1.64c0-8.814 0-13.22 2.73-15.95s7.137-2.73 15.951-2.73z" fill="#07f"/>
  <path d="m.117 10.96c-.117 2.104-.117 4.64-.117 7.72v1.638c0 2.34 0 4.33.039 6.084 5.109 2.498 11.973 4.018 19.461 4.018s14.352-1.52 19.461-4.017c.039-1.755.039-3.783.039-6.083v-1.638c0-3.08 0-5.616-.117-7.76h-38.766z" fill="#0009b4"/>
  <circle cx="27.11" cy="19.7" r="3.71" stroke="#fff" stroke-width="3.897"/>
  <path d="m16.38 24.18-8.58-8.58m8.58 0-8.58 8.58" stroke="#fff" stroke-width="3.897"/>
 </g>
</svg>
