<svg xmlns="http://www.w3.org/2000/svg" version="1.1" xmlns:xlink="http://www.w3.org/1999/xlink" xmlns:svgjs="http://svgjs.com/svgjs" width="512" height="512" x="0" y="0" viewBox="0 0 512 512" style="enable-background:new 0 0 512 512" xml:space="preserve" class=""><g><path d="M326.4 237.2h80.1c88.9-1.7 110.4-121.1 29.7-154.7-78.8-30.2-144.2 63.8-90.2 127-6.5 9.2-13.1 18.5-19.6 27.7zm116.7-94.8c19.3.5 19.3 28.8 0 29.3-19.4-.5-19.4-28.8 0-29.3zm-36.5 0c19.3.5 19.3 28.8 0 29.3-19.4-.5-19.4-28.8 0-29.3zm-36.6 0c19.3.5 19.3 28.8 0 29.3-19.3-.5-19.3-28.8 0-29.3zm-269.4 82h99.9c-8.1-11.5-16.3-23-24.4-34.5C243.8 111.2 161.3-6.5 63.5 31.4c-100.7 41.5-73.6 191.2 37.1 193zm45.6-116.9c22.3.6 22.3 33.2 0 33.8-22.3-.7-22.3-33.2 0-33.8zm-45.6 0c22.3.6 22.3 33.2 0 33.8-22.2-.6-22.3-33.3 0-33.8zm-45.6 0c22.2.6 22.2 33.2 0 33.8-22.3-.7-22.3-33.2 0-33.8zm330.2 347.2c0 18.3-14.8 33.1-33.1 33.1H164.4c-18.3 0-33.1-14.8-33.1-33.1v-19c0-51 37.4-94 87.2-101.6 20.8 19.7 58.8 19.7 79.5 0 49.9 7.6 87.2 50.6 87.2 101.6zm-127-233.9c28.3 0 51.3 23 51.3 51.3.6 43.6-53.3 67.5-85.1 38.5-35.2-30.3-13.3-90.1 33.8-89.8zM135.8 487.9H32.6c-15.1 0-27.2-12.2-27.2-27.2V445c0-42.4 31.1-77.5 71.7-83.6 17 16.3 48.4 16.3 65.4 0 1.7.3 3.3.6 4.9 1-17.4 20.5-27 46.3-27 73.4v19c.2 13.2 6.1 25.1 15.4 33.1zm-25.9-219.8c23.3 0 42.2 18.9 42.2 42.2.5 35.9-43.8 55.6-70 31.7-29-24.9-11-74.1 27.8-73.9zM511 445v15.7c0 15.1-12.2 27.2-27.3 27.2H380.6c9.3-8 15.2-19.9 15.2-33.1v-19c0-27.1-9.6-53-27-73.5 1.6-.3 3.3-.7 4.9-.9 17.1 16.3 48.4 16.3 65.4 0 40.8 6.2 71.9 41.2 71.9 83.6zM406.5 268.1c23.3 0 42.2 18.9 42.2 42.2.5 35.9-43.8 55.6-70 31.7-28.9-24.9-10.9-74.1 27.8-73.9z" fill="#ffffff" data-original="#000000" opacity="1" class=""></path></g></svg>