<svg xmlns="http://www.w3.org/2000/svg" version="1.1" xmlns:xlink="http://www.w3.org/1999/xlink" xmlns:svgjs="http://svgjs.com/svgjs" width="512" height="512" x="0" y="0" viewBox="0 0 503.997 503.997" style="enable-background:new 0 0 512 512" xml:space="preserve" class=""><g><path d="M302.413 187.815c15.454-66.603-15.101-135.383-74.882-168.564S93.218-3.475 44.871 44.871s-58.8 122.879-25.62 182.66 101.961 90.336 168.564 74.882c16.563-55.001 59.597-98.035 114.598-114.598zm-91.675 37.16a9.318 9.318 0 0 1-3.162.566 8.984 8.984 0 0 1-8.417-5.83l-18.019-48.065h-54.919l-18.019 48.065a8.985 8.985 0 0 1-16.833-6.287l53.895-143.719a8.983 8.983 0 0 1 16.834 0l53.895 143.719a8.982 8.982 0 0 1-5.255 11.551z" fill="#ffffff" data-original="#000000" class="" opacity="1"></path><path d="M351.296 198.594c-84.335 0-152.702 68.367-152.702 152.702s68.367 152.702 152.702 152.702 152.702-68.367 152.702-152.702c-.095-84.296-68.407-152.608-152.702-152.702zm71.859 107.789h-21.154a274.811 274.811 0 0 1-43.439 68.797 171.23 171.23 0 0 0 50.643 39.936c4.44 2.218 6.242 7.615 4.024 12.054a8.985 8.985 0 0 1-12.054 4.024 188.233 188.233 0 0 1-54.847-42.622 247.804 247.804 0 0 1-53.652 42.487c-4.366 2.356-9.815.728-12.171-3.638s-.728-9.815 3.638-12.171a240.178 240.178 0 0 0 50.481-40.708 195.151 195.151 0 0 1-18.36-28.214c-2.232-4.438-.445-9.844 3.993-12.077s9.845-.445 12.077 3.993a177.738 177.738 0 0 0 14.561 22.627 256.75 256.75 0 0 0 35.391-54.488h-102.85a8.982 8.982 0 0 1 0-17.964h62.877v-26.947a8.982 8.982 0 0 1 17.964 0v26.947h62.877a8.982 8.982 0 0 1 8.982 8.982c.002 4.961-4.02 8.982-8.981 8.982z" fill="#ffffff" data-original="#000000" class="" opacity="1"></path><g fill-rule="evenodd" clip-rule="evenodd"><path d="M132.959 153.682h41.445l-20.722-55.26zM193.025 459.804a9.037 9.037 0 0 1-8.533 6.198 10.047 10.047 0 0 1-2.785-.449c-85.549-28.68-145.693-105.69-152.792-195.638a148.254 148.254 0 0 0 20.39 18.594c13.314 74.526 66.21 135.859 137.971 159.978a8.982 8.982 0 0 1 5.749 11.317zM476.062 235.063a148.254 148.254 0 0 0-20.39-18.594c-13.314-74.526-66.21-135.859-137.971-159.978a8.983 8.983 0 1 1 5.569-17.067c85.549 28.681 145.693 105.69 152.792 195.639z" fill="#ffffff" data-original="#000000" class="" opacity="1"></path></g></g></svg>