<svg xmlns="http://www.w3.org/2000/svg" version="1.1" xmlns:xlink="http://www.w3.org/1999/xlink" xmlns:svgjs="http://svgjs.com/svgjs" width="512" height="512" x="0" y="0" viewBox="0 0 8.467 8.467" style="enable-background:new 0 0 512 512" xml:space="preserve" class=""><g><g paint-order="fill markers stroke"><path d="M5.067.798 1.1 1.597a1.107 1.107 0 0 0-.543.283c-.17.165-.291.42-.291.73v.996c-.001.146.53.147.529 0V2.61c0-.182.055-.276.133-.352a.612.612 0 0 1 .285-.146l3.91-.787c.241-.024.428.18.428.363v1.099c0 .146.53.147.53 0v-1.1a.913.913 0 0 0-1.013-.89zM1.587 6.085a.265.265 0 0 0-.266.263.265.265 0 0 0 .266.266h.926a.265.265 0 0 0 .265-.266.265.265 0 0 0-.265-.263zM6.338 4.894a.265.265 0 0 0-.264.264.265.265 0 0 0 .264.265.265.265 0 0 0 .266-.265.265.265 0 0 0-.266-.264z" fill="#ffffff" data-original="#000000" opacity="1" class=""></path><path d="M1.155 2.53c-.49 0-.89.401-.89.89v3.36c0 .49.4.893.89.893h5.096c.49 0 .893-.404.893-.893v-.373h.165c.49 0 .893-.403.893-.893v-1.11a.897.897 0 0 0-.893-.892h-.165v-.091c0-.49-.404-.891-.893-.891zm0 .53h5.096c.205 0 .363.155.363.36v.524h-.25c-.405 0-.74.15-.963.385-.221.234-.33.541-.33.846s.109.613.33.847c.222.235.558.385.963.385h.25v.373a.357.357 0 0 1-.363.363H1.155a.356.356 0 0 1-.361-.363V3.42c0-.205.156-.36.361-.36zm5.989.981h.165c.206 0 .364.158.364.364v1.11a.357.357 0 0 1-.364.363h-.945c-.28 0-.457-.091-.578-.219-.121-.128-.186-.305-.186-.484s.065-.355.186-.483.298-.219.578-.219h.514a.265.265 0 0 0 .266-.265z" fill="#ffffff" data-original="#000000" opacity="1" class=""></path></g></g></svg>