<svg xmlns="http://www.w3.org/2000/svg" version="1.1" xmlns:xlink="http://www.w3.org/1999/xlink" xmlns:svgjs="http://svgjs.com/svgjs" width="512" height="512" x="0" y="0" viewBox="0 0 331.486 439.992" style="enable-background:new 0 0 512 512" xml:space="preserve" class=""><g><path d="M317.868 366.32V86.463l7.071-18.645h1.547a5 5 0 0 0 5-5v-26.5a5 5 0 0 0-5-5h-201a5 5 0 0 0-5 5v26.5a5 5 0 0 0 5 5h1.548l7.07 18.645V366.32l-3.907 23.348h191.577zM202.471 89.332c-.027.375-.041.75-.041 1.127.134 10.14 8.972 20.384 19.788 29.142 10.894 8.715 23.971 15.748 33.626 18.33 10.697 2.794 19.854 3.67 25.949 8.673 3.074 2.493 5.583 6.012 7.4 11.679 1.808 5.657 2.853 13.44 2.852 24.146 0 .831-.006 1.676-.018 2.541-.245 17.392-2.805 28.566-6.323 35.145-3.573 6.576-7.687 8.586-12.022 8.639-4.954.034-10.542-3.078-14.761-7.154-4.256-3.995-6.991-9.094-6.888-11.51 0-.022.005-.036.005-.057l4.507 1.107a4 4 0 0 0 4.839-2.931 3.972 3.972 0 0 0-.711-3.358c5.886-1.2 11.28-4.734 14.675-10.254 6.509-10.582 3.203-24.437-7.379-30.943-10.583-6.508-24.438-3.203-30.946 7.377-6.094 9.912-3.581 22.696 5.459 29.622a4 4 0 0 0 1.115 7.307l4.514 1.108c-.049.339-.078.68-.078 1.022.102 4.573 3.43 9.806 8.119 14.396 4.724 4.509 10.961 8.233 17.53 8.267h.14c5.768.001 11.51-3.303 15.411-10.757 3.988-7.514 6.525-19.217 6.792-36.968.012-.885.018-1.75.02-2.599-.004-10.961-1.054-19.121-3.042-25.362-2.935-9.369-8.293-14.396-14.714-17.189-6.404-2.821-13.723-3.756-21.418-5.812-8.812-2.324-21.699-9.189-32.152-17.585-10.529-8.351-18.422-18.423-18.288-26.022.001-.382.026-.756.062-1.127h105.376v270.486H140.104V89.332zM315.192 53h-16v-7.333h16zm-25.334-7.333V53h-16v-7.333zm-25.333 0V53h-16v-7.333zM225.986 0c-41.102 0-75.689 11.375-85.92 26.834h171.84C301.675 11.375 267.088 0 225.986 0zM9.049 349.222a8.002 8.002 0 0 0 7.518-8.456c-.389-6.65-.567-12.708-.567-18.222-.034-24.215 3.497-37.819 6.965-44.919v150.002c0 6.83 5.537 12.363 12.363 12.363 6.828 0 12.365-5.533 12.365-12.363v-90.271h4.635v90.271c0 6.83 5.537 12.363 12.363 12.363 6.828 0 12.365-5.533 12.365-12.363V277.666a43.284 43.284 0 0 1 1.78 4.239c2.82 7.812 5.189 20.632 5.18 40.638 0 5.516-.176 11.573-.564 18.224a8.003 8.003 0 0 0 7.993 8.468 7.998 7.998 0 0 0 7.979-7.534c.405-6.935.594-13.3.594-19.157-.041-30.181-4.861-46.886-11.436-56.93-3.283-4.985-7.127-8.183-10.678-9.954-3.419-1.724-6.422-2.112-8.225-2.135-.117-.005-.233-.018-.353-.018H30.692c-.118 0-.233.013-.351.018-1.801.022-4.808.41-8.229 2.133-5.378 2.669-11.177 8.503-15.235 18.842C2.771 284.88.012 299.886 0 322.545c0 5.857.188 12.225.595 19.159a8 8 0 0 0 8.454 7.518z" fill="#ffffff" data-original="#000000" opacity="1" class=""></path><circle cx="50.011" cy="225.31" r="22.5" fill="#ffffff" data-original="#000000" opacity="1" class=""></circle><path d="M226.438 185.106c-7.423-4.725-20.629-4.25-30.047 8.042-12.848 16.977-18.396 28.967-22.986 50.855-2.135 16.263 7.807 21.329 16.536 24.122 2.185.7 4.084 1.247 5.763 1.462 2.073.713 4.354.903 6.655.414v-.002l10.609-2.26-20.006 25.265c-4.285 5.412-3.371 13.274 2.041 17.56a12.454 12.454 0 0 0 7.753 2.701c3.689 0 7.34-1.624 9.807-4.74l28.415-35.889c-10.859-10.747-18.313-21.722-23.411-31.436l-6.388 1.361a133.667 133.667 0 0 1 3.359-7.562 112.061 112.061 0 0 1-4.039-10.195c-4.566-13.436-4.964-22.874-4.996-24.628a9.938 9.938 0 0 1 2.838-7.12 9.927 9.927 0 0 1 7.032-3.018l.134-.002c5.424 0 9.909 4.416 9.994 9.844l.006.117c.006.165.022.447.053.832.057.767.18 2.019.431 3.692a74.912 74.912 0 0 0 1.415 6.959l.361-.633c5.876-8.531 6.091-21.019-1.329-25.741zM254.119 256.038a12.476 12.476 0 0 0 .82-14.352 12.475 12.475 0 0 0-13.225-5.632l-3.699.788c4.221 7.067 9.389 13.748 15.471 19.994z" fill="#ffffff" data-original="#000000" opacity="1" class=""></path><path d="M223.566 200.989a27.571 27.571 0 0 1-.064-1.078h-.001a7.998 7.998 0 0 0-8.102-7.875c-4.418.058-7.954 3.685-7.895 8.102h-.002c.012.633.196 10.214 4.89 24.021 4.683 13.796 13.946 31.842 31.946 48.955a7.973 7.973 0 0 0 5.513 2.204 8.002 8.002 0 0 0 5.517-13.796c-15.9-15.134-23.813-30.73-27.828-42.515-2.003-5.886-3.018-10.811-3.527-14.189a53.93 53.93 0 0 1-.447-3.829zM222.442 174.832a5.25 5.25 0 1 0-.001-10.501 5.25 5.25 0 0 0 .001 10.501zm0-8.584a3.5 3.5 0 1 1 0 7 3.5 3.5 0 1 1 0-7zM210.026 148.499c-4.143 0-7.5 3.358-7.5 7.5s3.357 7.5 7.5 7.5a7.5 7.5 0 0 0 0-15zm0 12.737a5 5 0 1 1 0-10 5 5 0 1 1 0 10zM221.026 147.832a7.5 7.5 0 1 0 0-15 7.5 7.5 0 0 0 0 15zm0-12.262c2.762 0 5 2.238 5 5s-2.238 5-5 5a5 5 0 1 1 0-10zM193.608 128.512c0 5.063 4.104 9.166 9.166 9.166s9.167-4.104 9.167-9.166a9.167 9.167 0 0 0-18.333 0zm9.166-5.821a6.11 6.11 0 1 1 .003 12.22 6.11 6.11 0 0 1-.003-12.22zM190.858 115.345c6.306 0 11.417-5.111 11.417-11.417 0-6.305-5.111-11.416-11.417-11.416-6.305 0-11.416 5.111-11.416 11.416s5.112 11.417 11.416 11.417zm0-18.665a7.61 7.61 0 1 1 .003 15.221 7.61 7.61 0 0 1-.003-15.221zM248.594 322.616l26.159-26.159 2.135 2.136-26.159 26.158zM259.53 333.651l26.16-26.159 2.134 2.136-26.159 26.159zM244.698 337.46l44.895-44.894 2.136 2.136-44.895 44.894zM153.62 174.616l26.16-26.16 2.134 2.136-26.159 26.159zM164.563 185.562l26.16-26.159 2.134 2.136-26.159 26.159zM149.724 189.462l44.895-44.895 2.136 2.136-44.895 44.894zM326.486 393.334h-201a5 5 0 0 0-5 5V429a5 5 0 0 0 5 5h201a5 5 0 0 0 5-5v-30.666a5 5 0 0 0-5-5zm-12.628 12v7.333h-16v-7.333zm-25.333 0v7.333h-16v-7.333zm-25.333 0v7.333h-16v-7.333z" fill="#ffffff" data-original="#000000" opacity="1" class=""></path></g></svg>