<svg xmlns="http://www.w3.org/2000/svg" version="1.1" xmlns:xlink="http://www.w3.org/1999/xlink" xmlns:svgjs="http://svgjs.com/svgjs" width="512" height="512" x="0" y="0" viewBox="0 0 512.002 512.002" style="enable-background:new 0 0 512 512" xml:space="preserve" class=""><g><path d="M74.909 441.222c-40.711-.411-39.85-.955-39.995.995-.2 2.669 5.581.937 6.177 5.095.125 3.905-.182 53.477-.202 56.559-.465 3.321-3.717 2.985-3.193 5.027.218.856.885 1.125 1.761 1.125 6.275 0 14.767.182 19.582 1.051 57.362 10.352 62.963-69.374 15.87-69.852zm16.135 51.726c-5.258 12.93-31.41 18.255-37.206 8.123l-.342-54.169c43.199-2.773 44.151 29.814 37.548 46.046zM132.461 476.033c0 47.193 75.885 48.024 75.885-1.683.001-46.168-75.885-47.349-75.885 1.683zm42.754 30.376c-16.82-.024-26.634-10.314-29.161-30.493l-.005-.029c0-20.12 6.631-29.941 20.866-30.904 14.281-.959 27.332 13.536 27.333 29.275.293 13.808-2.774 30.583-19.033 32.151zM290.507 440.31c-3.429 1.091-.946.804-53.197.728-1.846-.967-4.739-2.156-5.187-.112l-1.854 8.439c-.354 1.607 1.797 2.522 2.707 1.144.806-1.222 2.021-2.145 3.708-2.824 4.331-.173 15.958-.193 18.514-.196l-.266 56.8c-.004.084-.119 2.051-1.949 3.166-1.283.782-.734 2.771.784 2.771 16.921-.077 17.028.307 17.384-1.229.48-2.08-2.63-1.455-2.904-4.571-.063-2.641-.456-47.658-.537-56.926l16.292.387c.146.006 3.583.201 4.802 3.628.546 1.538 2.844 1.197 2.902-.447.08-2.241.179-5.389.228-6.991 1.437-3.254-.364-4.101-1.427-3.767zM374.812 493.886c5.591-2.254 8.15-1.026 8.021-3.286a1.497 1.497 0 0 0-1.469-1.41c-4.007-.063-12.362-.071-14.139-.072l-19.867-49.12a6.029 6.029 0 0 0-.158-.412c-.235-.557-.735-.922-1.387-.912-1.448.012.641-4.022-27.471 65.116-.011.023-1.171 2.343-4 3.698-1.431.687-.935 2.84.644 2.843l11.812.018c1.717 0 2.077-2.356.514-2.905-.83-.417-1.21-1.002-.974-1.897.838-2.881 3.071-9.131 3.612-10.637l26.04.068 5.118 12.128c.021.051.075.277-.094.529-.871.95-.207 2.485 1.08 2.505l14.853.21c.879 0 1.515-.695 1.515-1.495 0-1.653-1.659-1.023-3.456-3.46-1.923-3.251-4.447-8.518-5.365-10.465 1.879.04 3.559-.188 5.171-1.044zm-42.832-4.608 11.368-29.301 10.484 29.049-21.852.252zM476.114 493.808c-2.885-.881-2.115 6.921-9.445 7.218-2.311.091-14.613.578-22.341.52 10.024-7.645 19.944-18.429 22.391-21.492 25.854-36.977-13.461-47.198-32.69-36.462a1.496 1.496 0 0 0-.762 1.196c-.117 1.6.192 4.836.919 9.612a1.494 1.494 0 0 0 2.884.281c5.62-15.667 23.922-12.177 24.57 4.66.893 23.156-29.789 45.352-32.214 48.383a1.495 1.495 0 0 0-.007 1.857c.002 1.877 2.378 2.117 2.908.585 5.043-.029 32.42-.187 37.487-.133 3.673.266 5.489-1.869 5.57-4.256 1.801-10.513 2.389-11.455.73-11.969zM410.572 252.934l-124.149-82.207a7.474 7.474 0 0 0-8.252 12.462l119.525 79.145c-1.31 5.505-2.538 12.866-3.29 16.283-4.514 20.48-10.03 29.682-19.172 48.888-18.243.573-34.819.015-37.395.079-.997-.981-99.972-106.652-104.819-111.23-6.963-6.775-13.474-13.882-20.406-21.449-17.418-19.014-3.173-3.764-102.41-109.027l9.732-7.465 129.155 85.521a7.473 7.473 0 0 0 8.252-12.462l-133.6-88.465a7.473 7.473 0 0 0-8.674.302L94.543 79.055a7.472 7.472 0 0 0-2.133 9.277c.743 1.484 234.798 249.768 235.737 250.675.532.516.969.941 1.474 1.367 1.97 1.862 4.646 2.417 7.405 2.214 0 0 25.499.399 43.324-.31a7.473 7.473 0 0 0 6.476-4.307c10.843-23.242 18.043-34.063 23.333-61.985 2.201-11.611 2.506-11.955 3.344-14.357a7.477 7.477 0 0 0-2.931-8.695z" fill="#ffffff" data-original="#000000" opacity="1" class=""></path><path d="M443.386 99.391c.014.525.026 1.09.035 1.688.064 4.127 3.49 7.402 7.588 7.357a7.473 7.473 0 0 0 7.356-7.588c-.013-.821-.028-1.508-.04-1.907.039-.394.055-.79.046-1.187-1.526-72.221-1.618-56.671-.149-78.887.359-5.44-3.774-10.169-9.213-10.54l-72.794-4.98C326.926-.637 349.342.036 217.036.053c-.459 0-156.016 9.185-156.476 9.213-5.417.323-9.591 4.994-9.307 10.409 12.719 244.021 12.2 203.511 5.738 365.241a9.927 9.927 0 0 0 7.622 10.04c15.977 3.778 14.604 2.313 47.876 2.338.936.047-3.182.442 64.596-6.951 92.348 15.139 88.567 14.657 90.325 14.505 104.15-8.729 74.292-6.61 140.027-10.253l38.445 7.777c6.203 1.24 11.931-3.536 11.865-9.823-.51-47.455-.433-106.788.206-158.717v-.107c-.192-101.614-.214-90.085-.053-97.012l.016-.703-7.471-.17-7.473-.107-.015.628c-.056 2.374-.1 4.269-.124 5.562l-.001.152c.304 160.449-.945 154.831-.096 244.41l-33.275-6.731a7.444 7.444 0 0 0-1.895-.136c-71.132 3.942-30.631 1.052-140.785 10.283-94.289-15.456-88.818-14.69-90.303-14.527l-63.926 6.973c-31.398-.023-30.716 1.048-40.459-1.021 6.264-156.801 7.393-107.11-5.654-357.434L217.18 15c137.378-.018 89.505-1.428 225.795 7.896-1.188 17.963-1.123.7.442 74.721a7.41 7.41 0 0 0-.051 1.095l.02.679z" fill="#ffffff" data-original="#000000" opacity="1" class=""></path><path d="M215.355 318.006c-3.765-5.874-30.438-33.113-39.35-41.599-49.421-45.826-47.326-48.601-59.574-17.457-18.321 46.596-27.671 55.082-11.954 64.361 30.394 17.923 25.021 35.413 72.263 16.566 10.861-4.338 13.657-5.38 30.125-9.534l.039-.011c3.198-.807 4.062-1.028 4.759-1.287 4.473-1.658 6.261-7.031 3.692-11.039zm-74.917 13.998c-3.627-2.541-15.161-13.79-28.744-21.788.982-3.634 4.457-11.732 7.329-18.426 6.199-14.424 13.744-33.469 14.159-34.466 1.01.844 34.624 30.238 62.157 60.552-26.936 7.154-41.341 18.296-54.901 14.128zM380.104 86.109c-5.405-6.775-22.702-15.883-28.557-17.913a7.467 7.467 0 0 0-5.629.298c-11.867 5.579-13.652 6.317-27.312 9.741L290.67 84.53a6.815 6.815 0 0 0-.282.069c-.453.121-.816.209-1.117.282-.763.189-2.184.541-3.56 1.648a7.46 7.46 0 0 0-1.625 1.817 7.475 7.475 0 0 0 .97 10.715l18.827 15.128c9.67 7.8 40.343 30.495 49.731 36.796 1.048.702 1.574 1.188 2.188 1.755 3.285 3.026 5.919 3.821 10.988 3.821.813 0 1.69-.02 2.641-.056a7.472 7.472 0 0 0 7.137-6.521l6.136-48.019c.16-.763.313-1.417.449-1.995 1.281-5.468 1.14-8.602-3.049-13.861zm-11.501 10.457a86.867 86.867 0 0 0-.553 2.475c-.055.25-.099.508-.143.826l-5.03 39.358c-.292-.21-.603-.427-.938-.652-9.176-6.16-39.199-28.376-48.683-36.027l-7.567-6.08 16.292-3.671.173-.041c13.531-3.391 16.756-4.502 27.155-9.343 6.388 2.916 16.927 9.281 19.108 12.016.135.169.249.316.346.442l-.16.697z" fill="#ffffff" data-original="#000000" opacity="1" class=""></path></g></svg>