<svg xmlns="http://www.w3.org/2000/svg" version="1.1" xmlns:xlink="http://www.w3.org/1999/xlink" xmlns:svgjs="http://svgjs.com/svgjs" width="512" height="512" x="0" y="0" viewBox="0 0 110 110" style="enable-background:new 0 0 512 512" xml:space="preserve" class=""><g><path d="M101.37 44.4a10.86 10.86 0 0 0-12.26 1.35l-8.76 7.61L87.77 20a5.66 5.66 0 0 0-8.16-6.23l.15-.68a5.67 5.67 0 0 0-4.11-6.71 5.5 5.5 0 0 0-4.28.62 6 6 0 0 0-2.72 3.8l-.1.45a5.56 5.56 0 0 0-3.12-2.06 5.48 5.48 0 0 0-4.25.68 6 6 0 0 0-2.71 3.8l-1.35 6.06A5.61 5.61 0 0 0 54 17.7a5.55 5.55 0 0 0-4.26.68 6.05 6.05 0 0 0-2.74 3.8l-.81 3.65v-8.74a5.68 5.68 0 0 0-5.67-5.66 5.65 5.65 0 0 0-3.66 1.35v-.69a5.67 5.67 0 0 0-5.47-5.66A5.39 5.39 0 0 0 27.4 8a6 6 0 0 0-1.84 4.3v.47a5.53 5.53 0 0 0-7.49.25 6 6 0 0 0-1.83 4.29v6.21a5.63 5.63 0 0 0-3.49-1.34 5.54 5.54 0 0 0-4 1.59 6 6 0 0 0-1.83 4.3V60A26.16 26.16 0 0 0 9 70.29L11.45 76a24.25 24.25 0 0 1 1.93 9.49v15a3 3 0 0 0 3 3h26.84a3 3 0 0 0 3-3v-1.17l19.85 4.41a3 3 0 0 0 3.58-2.28l1.91-8.56a23.29 23.29 0 0 1 4.34-9.28c4.54-5.88 12.51-16.45 14.92-21.23a20.88 20.88 0 0 1 3.81-5.29l7.49-7.49a3.28 3.28 0 0 0-.75-5.2ZM60.42 14.14a4 4 0 0 1 1.81-2.52 3.5 3.5 0 0 1 2.71-.45 3.64 3.64 0 0 1 2.67 4.33L62.7 37.6a10.91 10.91 0 0 0-8.11 2.73l3.54-15.91ZM46.36 34.4 49 22.61a4 4 0 0 1 1.81-2.52 3.53 3.53 0 0 1 2.72-.45A3.65 3.65 0 0 1 56.18 24l-4.4 19.76-5.56 7.54V34.72a1.15 1.15 0 0 0 .14-.32ZM13.29 75.24l-2.44-5.73A24.25 24.25 0 0 1 8.92 60V28.08a4 4 0 0 1 1.22-2.86 3.48 3.48 0 0 1 2.45-1h.1a3.66 3.66 0 0 1 3.55 3.66v15.76a1 1 0 0 0 2 0V17.32a4 4 0 0 1 1.22-2.85 3.52 3.52 0 0 1 2.56-1 3.66 3.66 0 0 1 3.54 3.65v24.69a1 1 0 0 0 2 0v-29.5a4 4 0 0 1 1.22-2.86 3.55 3.55 0 0 1 5 .06 3.6 3.6 0 0 1 1.07 2.58v27.34a1 1 0 0 0 2 0V17.09a3.66 3.66 0 0 1 3.66-3.66 3.67 3.67 0 0 1 3.67 3.66v37.22a1 1 0 0 0 .68.95A1 1 0 0 0 46 54.9l8.7-11.76a8.87 8.87 0 0 1 9.52-3.25 1.28 1.28 0 0 1 .78 1.92l-5.68 8.94a22.4 22.4 0 0 0-2.82 6.57c-1.28 5-6.7 16.95-9.83 23.6a25.38 25.38 0 0 0-2.21 7.69h-29v-3.1a26.34 26.34 0 0 0-2.17-10.27Zm30.93 25.31a1 1 0 0 1-1 1H16.38a1 1 0 0 1-1-1v-9.94h28.87v1.17Zm23.48.45a1 1 0 0 1-1.19.76l-20.29-4.49v-5.49a24.16 24.16 0 0 1 .15-2.7l23 4.3Zm33-52.83-7.5 7.49a22.51 22.51 0 0 0-4.2 5.82c-2.34 4.63-10.23 15.09-14.72 20.9a25.46 25.46 0 0 0-4.46 9.05L46.69 87.1a23.77 23.77 0 0 1 1.75-5.33c3.16-6.72 8.64-18.76 10-24a20.52 20.52 0 0 1 2.57-6l5.68-8.94a3.28 3.28 0 0 0-1.9-4.83h-.12l4.9-22 1-4.66a4 4 0 0 1 1.82-2.52 3.49 3.49 0 0 1 2.73-.44 3.62 3.62 0 0 1 2.17 1.58 3.57 3.57 0 0 1 .48 2.76l-1.08 4.87-4.85 21.8a1 1 0 0 0 .76 1.2h.22a1 1 0 0 0 1-.78L78.67 18A3.66 3.66 0 0 1 83 15.19a3.65 3.65 0 0 1 2.78 4.36l-8.04 36.34A1 1 0 0 0 78.2 57a1 1 0 0 0 1.17-.1l11-9.6a8.87 8.87 0 0 1 10-1.1 1.27 1.27 0 0 1 .65.94 1.3 1.3 0 0 1-.31 1.05Z" fill="#ffffff" data-original="#000000" class="" opacity="1"></path></g></svg>