<svg xmlns="http://www.w3.org/2000/svg" version="1.1" xmlns:xlink="http://www.w3.org/1999/xlink" xmlns:svgjs="http://svgjs.com/svgjs" width="512" height="512" x="0" y="0" viewBox="0 0 512 512" style="enable-background:new 0 0 512 512" xml:space="preserve" class=""><g><path d="M92.824 296.241 72 337.888V448h32V289.061c-3.07 1.4-5.608 2.615-7.564 3.585a7.958 7.958 0 0 0-3.612 3.595zM72 464h32v16H72zM68.533 251.9C131.679 215.887 225.267 208 256 208s124.321 7.887 187.467 43.9a39.615 39.615 0 0 1 15.82 16.785l9.371 18.743c-2.215-17.543-5.912-37.023-12.086-52.457-10.09-25.225-13.942-44.048-17.341-60.655-2.085-10.183-3.884-18.978-6.82-27.786a168.649 168.649 0 0 0-41.964-65.771C356.9 48.405 311.66 32 256 32S155.1 48.405 121.553 80.759a168.649 168.649 0 0 0-41.964 65.771c-2.936 8.808-4.735 17.6-6.82 27.786-3.4 16.607-7.251 35.43-17.341 60.655-6.192 15.481-9.9 34.868-12.116 52.517l9.4-18.8A39.607 39.607 0 0 1 68.533 251.9zm82.238-158.955a165.028 165.028 0 0 1 46.5-28.464 8 8 0 0 1 5.479 15.034 151.688 151.688 0 0 0-41.92 25.885C133.737 128.973 120 158.109 120 192a8 8 0 0 1-16 0c0-38.376 16.173-72.629 46.771-99.055z" fill="#ffffff" data-original="#000000" opacity="1" class=""></path><path d="M120 282.3v105.355A473.34 473.34 0 0 0 256 408a473.35 473.35 0 0 0 136-20.345V282.3c-29.049-11.4-78.075-26.3-136-26.3s-106.952 14.9-136 26.3z" fill="#ffffff" data-original="#000000" opacity="1" class=""></path><path d="M444.976 275.84a23.669 23.669 0 0 0-9.435-10.041C375.715 231.679 283.564 224 256 224s-119.715 7.679-179.541 41.8a23.661 23.661 0 0 0-9.434 10.041l-30.713 61.422a7.994 7.994 0 0 0 1.5 9.235l8 8 32.7-65.409a24.15 24.15 0 0 1 10.816-10.774C107.452 269.324 173.036 240 256 240s148.548 29.324 166.672 38.312a24.153 24.153 0 0 1 10.815 10.774l32.7 65.409 8-8a7.992 7.992 0 0 0 1.5-9.235z" fill="#ffffff" data-original="#000000" opacity="1" class=""></path><path d="M415.565 292.646c-1.956-.969-4.5-2.188-7.565-3.585V448h32V337.888l-20.824-41.647a7.961 7.961 0 0 0-3.611-3.595zM408 464h32v16h-32z" fill="#ffffff" data-original="#000000" opacity="1" class=""></path></g></svg>