<svg xmlns="http://www.w3.org/2000/svg" version="1.1" xmlns:xlink="http://www.w3.org/1999/xlink" xmlns:svgjs="http://svgjs.com/svgjs" width="512" height="512" x="0" y="0" viewBox="0 0 512 512" style="enable-background:new 0 0 512 512" xml:space="preserve" class=""><g><path d="M509.796 367.801 398.848 257.168a7.498 7.498 0 0 0-10.606.015 7.5 7.5 0 0 0 .015 10.606l60.377 60.206c-14.864 3.545-34.401.217-45.817-4.228-30.326-11.788-48.337-6.328-64.459 2.325-.104-.103-.208-.202-.312-.306l-68.66-68.482 54.205-54.04 40.513 40.434a7.5 7.5 0 1 0 10.595-10.617l-61.665-61.514 16.235-16.177c4.702-4.71 7.117-11.095 6.802-17.978-.305-6.632-3.137-12.941-7.975-17.767a27.367 27.367 0 0 0-11.293-6.815c1.548-3.44 2.368-7.238 2.368-11.198 0-7.884-3.308-15.704-9.076-21.457-4.058-4.048-8.934-6.739-14.016-8.067 2.45-4.36 3.759-9.3 3.754-14.451-.007-7.894-3.08-15.292-8.636-20.814-5.558-5.562-12.979-8.625-20.896-8.625-5.262 0-10.302 1.361-14.719 3.896a29.093 29.093 0 0 0-7.868-14.13c-5.558-5.562-12.979-8.625-20.896-8.625s-15.339 3.063-20.88 8.608l-6.743 6.707c-9.163-2.107-19.106.135-26.677 6.758-15.197-14.354-39.26-14.115-54.15.736-7.335 7.317-11.372 17.072-11.365 27.468.006 10.053 3.802 19.492 10.691 26.695-11.805 13.312-17.476 26.862-11.807 47.208l-27.789 27.716-2.359-2.354c-4.625-4.533-12.104-4.511-16.672.047L2.202 215.693a7.5 7.5 0 0 0 10.595 10.617l23.127-23.079 99.945 99.686-36.493 36.384a7.5 7.5 0 0 0 10.59 10.623l70.273-70.063a11.71 11.71 0 0 0 3.457-8.347 11.72 11.72 0 0 0-3.457-8.352l-2.302-2.296 13.696-13.66c10.345-10.319 21.152-11.174 33.666-12.164 10.344-.818 21.852-1.73 32.333-9.095l10.979 10.947-11.402 11.368a12.691 12.691 0 0 0-3.756 9.096c.012 3.425 1.357 6.63 3.755 8.989 0 0 74.881 74.562 75.107 74.751 27.437 25.647 61.452 43.613 96.487 50.837 10.505 2.167 20.582 3.228 29.97 3.228 21.889-.001 40.023-5.769 51.024-16.741a7.504 7.504 0 0 0 0-10.621zm-188.71-229.699c.12 2.623-.744 4.999-2.419 6.678l-27.271 27.173c-3.636 3.628-10.313 3.096-14.59-1.169-2.274-2.26-3.581-5.277-3.584-8.278-.003-2.43.861-4.632 2.432-6.198l27.281-27.21c3.624-3.63 10.294-3.092 14.568 1.171 2.178 2.172 3.45 4.953 3.583 7.833zm-16.915-36.468c0 3.234-1.165 6.177-3.28 8.286l-33.647 33.562c-4.834 4.823-13.623 4.193-19.199-1.387-4.655-4.642-5.887-11.362-3.4-16.296 7.533.032 14.682-2.16 20.135-7.585 6.038-6.044 7.836-13.319 6.828-20.12l8.693-8.649.011-.01.01-.01c4.824-4.818 13.603-4.189 19.182 1.375 2.966 2.957 4.667 6.906 4.667 10.834zm-33.87-58.415c3.909 0 7.562 1.501 10.304 4.245 2.724 2.707 4.226 6.333 4.229 10.207.004 3.89-1.502 7.535-4.245 10.271l-15.86 15.836c-.29-.319-20.53-20.583-20.53-20.583l15.818-15.749c2.722-2.726 6.374-4.227 10.284-4.227zm-53.769-14.632c2.724-2.726 6.376-4.227 10.285-4.227s7.562 1.501 10.304 4.245c2.724 2.708 4.226 6.333 4.229 10.208.004 3.89-1.502 7.534-4.237 10.263l-3.52 3.511s-20.359-20.34-20.556-20.523zM128.961 42.79c4.651-4.641 10.76-6.96 16.87-6.96 5.743 0 11.487 2.052 16.018 6.151l-33.688 33.602c-3.978-4.354-6.157-9.977-6.161-15.954-.002-6.38 2.469-12.359 6.961-16.839zm17.532 249.536-99.949-99.691 20.881-20.837 99.945 99.714zm77.625-72.237c-13.511 1.068-28.823 2.28-43.076 16.496l-13.722 13.686-78.604-78.421 30.976-30.895a7.5 7.5 0 0 0 1.796-7.748c-5.833-16.979-3.04-26.723 11.952-41.702l48.514-48.39c4.497-4.229 10.812-5.252 16.145-3.107.124.058.247.117.374.167a15.086 15.086 0 0 1 4.588 3.087l50.168 50.179c.383.384 2.198 2.296 3.146 4.907.019.051.033.103.054.154.91 2.626.918 5.927-2.245 9.093-7.011 6.98-25.722 1.449-35.114-7.942l-13.502-13.439c-7.972-7.993-20.351-8.134-28.182-.325l-18.396 18.35a7.503 7.503 0 0 0-.005 10.616c5.6 5.597 8.987 12.65 10.039 20.018.021.38.066.759.145 1.133a35.11 35.11 0 0 1-4.985 22.216 7.5 7.5 0 0 0 12.792 7.832 50.346 50.346 0 0 0 6.023-14.526l63.76 63.577c-6.527 3.702-13.886 4.292-22.641 4.984zm-40.529-89.156a50.162 50.162 0 0 0-9.081-20.99l13.469-13.435c1.156-1.153 4.103-2.576 6.988.316l13.509 13.446c5.329 5.329 12.959 10.036 21.158 12.836-3.016 9.869-.333 21.477 7.81 29.598 5.837 5.842 13.377 8.871 20.797 9.044-.007.256-.018.512-.017.77.007 6.962 2.927 13.853 8.002 18.895 5.309 5.294 12.209 7.969 18.952 7.969 6.188 0 12.245-2.255 16.81-6.808l.422-.421 10.56 10.519-33.733 33.63zm166.616 205.999c12.187-5.627 25.406-7.646 47.173.815 9.153 3.565 23.101 6.735 37.176 6.735 9.013-.001 18.079-1.302 25.968-4.632l32.668 32.575c-26.82 16.077-90.955 8.348-142.985-35.493zM339.733 388.911c-1.099-1.631-4.015-5.96-9.233-5.96h-.025c-5.231.014-8.124 4.358-9.213 5.993-1.22 1.83-2.647 3.92-4.214 6.213-15.658 22.921-30.946 46.734-30.946 63.878 0 28.627 22.34 43.604 44.407 43.604s44.407-14.978 44.407-43.604c0-17.144-15.288-40.957-30.946-63.878-1.567-2.294-2.996-4.385-4.237-6.246zm-9.224 98.728c-14.638 0-29.407-8.845-29.407-28.604 0-13.944 18.431-40.923 28.332-55.417l1.075-1.574 1.075 1.574c9.901 14.494 28.332 41.473 28.332 55.417 0 19.759-14.77 28.604-29.407 28.604zM75.677 362.939 2.202 436.252a7.501 7.501 0 0 0 10.596 10.619l73.475-73.313a7.501 7.501 0 0 0-10.596-10.619z" fill="#ffffff" data-original="#000000" class="" opacity="1"></path></g></svg>