<svg xmlns="http://www.w3.org/2000/svg" version="1.1" xmlns:xlink="http://www.w3.org/1999/xlink" xmlns:svgjs="http://svgjs.com/svgjs" width="512" height="512" x="0" y="0" viewBox="0 0 512 512" style="enable-background:new 0 0 512 512" xml:space="preserve" class=""><g><path d="M451.23 9.598H60.77C27.261 9.598 0 36.858 0 70.366v371.266c0 33.509 27.261 60.77 60.77 60.77h390.46c33.509 0 60.77-27.261 60.77-60.77V70.366c0-33.508-27.261-60.768-60.77-60.768zm27.266 432.035c0 15.034-12.231 27.266-27.266 27.266H60.77c-15.035 0-27.266-12.232-27.266-27.266V70.366c0-15.034 12.231-27.264 27.266-27.264h390.46c15.035 0 27.266 12.231 27.266 27.264zM256.034 118.25h-72.706c-9.252 0-16.752 7.5-16.752 16.752v241.995c0 9.252 7.5 16.752 16.752 16.752s16.752-7.5 16.752-16.752v-76.776h55.954c2.3 0 4.572-.116 6.829-.287l51.449 85.686c3.142 5.233 8.689 8.131 14.378 8.131 2.935 0 5.908-.771 8.607-2.393 7.933-4.762 10.502-15.053 5.739-22.985l-46.71-77.794c29.099-14.771 49.1-44.992 49.1-79.818v-3.052c0-49.328-40.101-89.459-89.392-89.459zm55.888 92.511c0 26.653-18.715 48.999-43.675 54.593-.356.071-.71.147-1.063.241a55.828 55.828 0 0 1-11.15 1.121H200.08V151.754h55.954c30.816 0 55.888 25.102 55.888 55.955z" fill="#ffffff" data-original="#000000" opacity="1" class=""></path></g></svg>