<svg xmlns="http://www.w3.org/2000/svg" version="1.1" xmlns:xlink="http://www.w3.org/1999/xlink" xmlns:svgjs="http://svgjs.com/svgjs" width="512" height="512" x="0" y="0" viewBox="0 0 64 64" style="enable-background:new 0 0 512 512" xml:space="preserve" class=""><g><linearGradient id="a" x1="9.5" x2="48" y1="2" y2="52" gradientUnits="userSpaceOnUse"><stop stop-opacity="1" stop-color="#ffffff" offset="0"></stop><stop stop-opacity="1" stop-color="#ffffff" offset="0.901"></stop></linearGradient><g fill="url(#a)"><path d="M17 15a2 2 0 1 0 0 4h13v28a2 2 0 1 0 4 0V19h13a2 2 0 1 0 0-4z" fill=""></path><path fill-rule="evenodd" d="M20 2C10.059 2 2 10.059 2 20v24c0 9.941 8.059 18 18 18h24c9.941 0 18-8.059 18-18V20c0-9.941-8.059-18-18-18zM6 20c0-7.732 6.268-14 14-14h24c7.732 0 14 6.268 14 14v24c0 7.732-6.268 14-14 14H20c-7.732 0-14-6.268-14-14z" clip-rule="evenodd" fill=""></path></g></g></svg>