<svg xmlns="http://www.w3.org/2000/svg" version="1.1" xmlns:xlink="http://www.w3.org/1999/xlink" xmlns:svgjs="http://svgjs.com/svgjs" width="512" height="512" x="0" y="0" viewBox="0 0 24 24" style="enable-background:new 0 0 512 512" xml:space="preserve" class=""><g><path fill="#ffffff" fill-rule="evenodd" d="M5 2h14a3 3 0 0 1 3 3v14a3 3 0 0 1-3 3H5a3 3 0 0 1-3-3V5a3 3 0 0 1 3-3zm8.71 14.71 4-4a1 1 0 0 0 .21-.33 1 1 0 0 0 0-.76 1 1 0 0 0-.21-.33l-4-4a1.004 1.004 0 0 0-1.42 1.42l2.3 2.29H7a1 1 0 1 0 0 2h7.59l-2.3 2.29a1 1 0 0 0 0 1.42 1 1 0 0 0 1.42 0z" clip-rule="evenodd" data-original="#000000" opacity="1" class=""></path></g></svg>