<svg xmlns="http://www.w3.org/2000/svg" version="1.1" xmlns:xlink="http://www.w3.org/1999/xlink" xmlns:svgjs="http://svgjs.com/svgjs" width="512" height="512" x="0" y="0" viewBox="0 0 1000 1000" style="enable-background:new 0 0 512 512" xml:space="preserve" class=""><g><path d="M867 759.6H727.76a16 16 0 0 1 0-32H851V116H149v611.6h123.24a16 16 0 0 1 0 32H133a16 16 0 0 1-16-16V100a16 16 0 0 1 16-16h734a16 16 0 0 1 16 16v643.6a16 16 0 0 1-16 16Z" fill="#616161" data-original="#000000" opacity="1" class=""></path><path d="M867 209.66H133a16 16 0 0 1 0-32h734a16 16 0 0 1 0 32ZM680.25 162.83h-6.8a16 16 0 0 1 0-32h6.8a16 16 0 0 1 0 32ZM738 162.83h-6.8a16 16 0 0 1 0-32h6.8a16 16 0 0 1 0 32ZM795.74 162.83h-6.8a16 16 0 0 1 0-32h6.8a16 16 0 0 1 0 32ZM553.9 916H446.1a16 16 0 0 1-15.87-18l6.19-49.67a267.74 267.74 0 0 1-78.27-32.45l-30.76 39.52a16 16 0 0 1-23.94 1.49l-76.22-76.22a16 16 0 0 1 1.48-23.94L268.24 726a267.74 267.74 0 0 1-32.45-78.27l-49.67 6.19a16 16 0 0 1-18-15.87V530.24a16 16 0 0 1 18-15.87l49.67 6.19a267.74 267.74 0 0 1 32.45-78.27l-39.53-30.76a16 16 0 0 1-1.48-23.94l76.22-76.22a16 16 0 0 1 23.94 1.48l30.76 39.53a267.74 267.74 0 0 1 78.27-32.45l-6.19-49.67a16 16 0 0 1 15.87-18h107.8a16 16 0 0 1 15.87 18l-6.19 49.67a267.74 267.74 0 0 1 78.27 32.45l30.76-39.53a16 16 0 0 1 23.94-1.48l76.22 76.22a16 16 0 0 1-1.48 23.94l-39.53 30.76a267.74 267.74 0 0 1 32.45 78.27l49.67-6.19a16 16 0 0 1 18 15.87V638a16 16 0 0 1-18 15.87l-49.67-6.19A267.74 267.74 0 0 1 731.76 726l39.53 30.76a16 16 0 0 1 1.48 23.94l-76.22 76.22a16 16 0 0 1-23.94-1.49l-30.76-39.53a267.74 267.74 0 0 1-78.27 32.45l6.19 49.65a16 16 0 0 1-15.87 18Zm-89.68-32h71.56L530 837.7a16 16 0 0 1 13-17.7 236.88 236.88 0 0 0 93.29-38.68 16 16 0 0 1 21.74 3.33l28.67 36.84 50.6-50.6-36.81-28.69a16 16 0 0 1-3.33-21.74 236.88 236.88 0 0 0 38.68-93.29 16 16 0 0 1 17.72-13l46.3 5.77v-71.58l-46.3 5.77a16 16 0 0 1-17.72-13 236.88 236.88 0 0 0-38.68-93.29 16 16 0 0 1 3.33-21.74l36.84-28.68-50.6-50.59-28.67 36.84a16 16 0 0 1-21.74 3.33A236.88 236.88 0 0 0 543 348.3a16 16 0 0 1-13-17.72l5.77-46.3h-71.55l5.77 46.3a16 16 0 0 1-13 17.72 236.88 236.88 0 0 0-93.31 38.7 16 16 0 0 1-21.74-3.33l-28.67-36.84-50.6 50.59 36.84 28.68a16 16 0 0 1 3.33 21.74 236.88 236.88 0 0 0-38.68 93.29 16 16 0 0 1-17.72 13l-46.3-5.77v71.56l46.3-5.77a16 16 0 0 1 17.72 13 236.88 236.88 0 0 0 38.68 93.29 16 16 0 0 1-3.33 21.74l-36.84 28.67 50.6 50.6 28.67-36.84a16 16 0 0 1 21.74-3.33A236.88 236.88 0 0 0 457 820a16 16 0 0 1 13 17.72Z" fill="#616161" data-original="#000000" opacity="1" class=""></path><path d="M384.76 693.37a38.3 38.3 0 0 1-24.76-9.08l-83.77-70.92a38.31 38.31 0 0 1 0-58.47L360 484a38.3 38.3 0 1 1 49.5 58.47l-49.23 41.69 49.23 41.69a38.3 38.3 0 0 1-24.76 67.54Zm0-186.45a6.23 6.23 0 0 0-4.07 1.49l-83.77 70.92a6.3 6.3 0 0 0 0 9.62l83.77 70.92a6.29 6.29 0 0 0 8.89-.74 6.3 6.3 0 0 0-.74-8.88l-63.66-53.9a16 16 0 0 1 0-24.42L388.85 518a6.3 6.3 0 0 0-4.08-11.11ZM615.24 693.37a38.3 38.3 0 0 1-24.76-67.54l49.23-41.69-49.23-41.69A38.3 38.3 0 1 1 640 484l83.77 70.92a38.31 38.31 0 0 1 0 58.47L640 684.3a38.34 38.34 0 0 1-24.76 9.07Zm0-186.45a6.3 6.3 0 0 0-4.09 11.08l63.66 53.9a16 16 0 0 1 0 24.42l-63.66 53.9a6.3 6.3 0 0 0-.73 8.89 6.29 6.29 0 0 0 8.88.73L703.07 589a6.3 6.3 0 0 0 0-9.62l-83.77-70.97a6.23 6.23 0 0 0-4.07-1.49Z" fill="#616161" data-original="#000000" opacity="1" class=""></path><path d="M461.43 721a38.22 38.22 0 0 1-13.9-2.63 38.35 38.35 0 0 1-21.73-49.62l77.05-197.08a38.31 38.31 0 0 1 71.35 27.9l-77.05 197.06A38.37 38.37 0 0 1 461.43 721Zm-2.25-32.44a6.3 6.3 0 0 0 8.17-3.57l77-197.08a6.33 6.33 0 0 0-.1-4.83 6.31 6.31 0 0 0-11.65.23l-77 197.08a6.32 6.32 0 0 0 3.58 8.17Z" fill="#616161" data-original="#000000" opacity="1" class=""></path></g></svg>