<svg xmlns="http://www.w3.org/2000/svg" version="1.1" xmlns:xlink="http://www.w3.org/1999/xlink" xmlns:svgjs="http://svgjs.com/svgjs" width="512" height="512" x="0" y="0" viewBox="0 0 511.999 511" style="enable-background:new 0 0 512 512" xml:space="preserve" class=""><g><path fill="#fa1831" d="M506.648 115.781c-8.527-33.441-26.703-62.273-52.562-83.386C428.895 11.828 398.03.5 367.19.5c-23.648 0-46.203 6.367-67.043 18.922-16.457 9.914-31.261 23.406-44.191 40.238C226.543 21.328 187.719.5 144.773.5c-30.832 0-61.68 11.328-86.867 31.895-25.851 21.113-44.023 49.945-52.55 83.382-9.274 36.364-11.067 94.477 33.046 164.828 40.832 65.114 111.61 125.442 210.371 179.317 2.239 1.223 4.707 1.832 7.18 1.832s4.945-.61 7.184-1.832c98.785-53.875 169.59-114.207 210.437-179.317 44.13-70.351 42.344-128.46 33.074-164.824zm0 0" data-original="#ff5b5b" class="" opacity="1"></path><path fill="#d21011" d="M506.648 115.781c-8.527-33.441-26.703-62.273-52.562-83.386C428.895 11.828 398.03.5 367.19.5c-23.648 0-46.203 6.367-67.043 18.922-16.441 9.906-31.226 23.375-44.148 40.187v402.145a15.003 15.003 0 0 0 7.133-1.832c98.789-53.875 169.594-114.207 210.437-179.317 44.133-70.351 42.348-128.46 33.078-164.824zm0 0" data-original="#ff0059" class="" opacity="1"></path><path fill="#ffffff" d="m108.766 237.832 18.714-37.43 50.84 101.684a15.002 15.002 0 0 0 13.414 8.293c5.684 0 10.875-3.211 13.414-8.293l50.844-101.684 18.715 37.43a14.994 14.994 0 0 0 13.414 8.29h113.742c8.282 0 14.996-6.716 14.996-14.997s-6.714-14.996-14.996-14.996H297.391l-27.985-55.969a15 15 0 0 0-13.414-8.289c-5.68 0-10.87 3.211-13.414 8.29l-50.84 101.683-50.843-101.684a14.996 14.996 0 0 0-26.829 0l-27.98 55.969H8.598c2.87 9.633 6.57 19.64 11.234 29.992h75.523a14.992 14.992 0 0 0 13.41-8.289zm0 0" data-original="#e7f0ef" class="" opacity="1"></path><path fill="#d3e3e6" d="M401.86 216.129H297.386l-27.98-55.969A15 15 0 0 0 256 151.871v48.55l18.703 37.411a15 15 0 0 0 13.418 8.29H401.86c8.282 0 15-6.716 15-14.997-.004-8.281-6.718-14.996-15-14.996zm0 0" data-original="#c5e1e6" class="" opacity="1"></path></g></svg>