<svg xmlns="http://www.w3.org/2000/svg" version="1.1" xmlns:xlink="http://www.w3.org/1999/xlink" xmlns:svgjs="http://svgjs.com/svgjs" width="512" height="512" x="0" y="0" viewBox="0 0 512.001 512.001" style="enable-background:new 0 0 512 512" xml:space="preserve" class=""><g><path d="M404.04 367.71a7.481 7.481 0 0 0 5.304 2.196 7.481 7.481 0 0 0 5.304-2.196l9.743-9.743 5.789 5.789a7.481 7.481 0 0 0 5.304 2.196 7.481 7.481 0 0 0 5.304-2.196l26.536-26.536a83.028 83.028 0 0 1 4.854 25.418c.133 4.141 3.637 7.392 7.737 7.255a7.5 7.5 0 0 0 7.255-7.737c-.803-24.984-10.984-48.483-28.668-66.167l-54.976-54.977a7.502 7.502 0 0 0-10.608 0l-5.438 5.438-14.983-30.068c-.038-.077-.074-.155-.115-.231L299.953 70.795c4.685-6.325 7.217-13.951 7.217-21.966 0-9.886-3.85-19.179-10.84-26.168-6.99-6.991-16.283-10.841-26.169-10.841s-19.179 3.85-26.168 10.84L184.03 82.622c-8.643-6.415-19.07-9.882-30.031-9.882-13.494 0-26.181 5.255-35.723 14.797-17.895 17.895-19.529 45.986-4.907 65.746l-56.425 56.425c-14.429 14.429-14.429 37.908 0 52.337v.001c7.215 7.214 16.691 10.821 26.168 10.821 8.911 0 17.82-3.191 24.85-9.568l40.566 20.216a7.5 7.5 0 0 0 10.058-3.368 7.501 7.501 0 0 0-3.368-10.058l-36.024-17.952L288.96 82.366l42.421 85.135-42.244 42.244a7.5 7.5 0 1 0 10.608 10.607l38.692-38.692 4.318 8.666-25.57 25.571a7.498 7.498 0 0 0 5.304 12.802 7.478 7.478 0 0 0 5.304-2.197l22.018-22.018 6.843 13.733-41.646 41.645a7.5 7.5 0 1 0 10.608 10.607l38.094-38.093 12.586 25.259-81.827 81.826-114.489-57.043a7.501 7.501 0 0 0-6.69 13.426l109.992 54.803-11.147 11.147a7.502 7.502 0 0 0 0 10.608l30.274 30.274c-6.028 5.595-18.159 14.641-36.457 18.22a7.5 7.5 0 1 0 2.879 14.721c22.17-4.335 36.769-15.282 44.205-22.314l28.423 28.423c-33.357 35.077-70.069 54.147-106.527 55.227-20.811.603-36.467-4.772-43.628-7.852l7.4-62.358c14.031 5.659 27.693 9.106 40.732 10.271 4.113.355 7.769-2.679 8.137-6.804a7.5 7.5 0 0 0-6.804-8.138c-14.198-1.267-29.387-5.65-45.143-13.027a7.499 7.499 0 0 0-10.628 5.908l-9.22 77.688a7.499 7.499 0 0 0 3.671 7.363c.864.504 20.952 11.998 52.155 11.997.923 0 1.86-.01 2.803-.03 28.694-.632 71.96-11.667 117.666-59.631l39.068 39.068a7.502 7.502 0 0 0 10.608 0l56.751-56.753c11.753-11.752 20.371-26.361 24.922-42.249a7.5 7.5 0 0 0-5.145-9.275 7.5 7.5 0 0 0-9.275 5.145c-3.852 13.446-11.15 25.816-21.108 35.772l-32.585 32.587-108.4-108.4 53.875-53.875 33.166 33.166-9.742 9.742a7.498 7.498 0 0 0-.001 10.606 7.476 7.476 0 0 0 5.304 2.197 7.477 7.477 0 0 0 5.303-2.196l9.743-9.743 9.227 9.227-9.745 9.744a7.501 7.501 0 0 0 .001 10.607zM128.883 98.143c6.709-6.709 15.629-10.403 25.116-10.403 6.935 0 13.562 1.982 19.249 5.664l-49.099 49.099c-8.869-13.751-7.295-32.33 4.734-44.36zm156.848-33.761-.01.009L98.674 251.439c-8.581 8.582-22.542 8.582-31.124 0-8.581-8.581-8.581-22.543 0-31.124L254.599 33.266a21.865 21.865 0 0 1 15.562-6.446c5.879 0 11.405 2.29 15.563 6.447a21.865 21.865 0 0 1 6.446 15.562 21.861 21.861 0 0 1-6.439 15.553zm118.97 402.86-8.256 8.256-108.4-108.4 8.256-8.256 108.4 108.4zm-33.31-183.489 26.831-26.831 49.673 49.674a83.224 83.224 0 0 1 12.622 16.216l-25.033 25.034-64.093-64.093zM66.317 72.578l-33.375-2.741c-4.121-.345-7.75 2.731-8.088 6.86a7.5 7.5 0 0 0 6.861 8.089l33.375 2.741a7.5 7.5 0 0 0 8.088-6.86 7.5 7.5 0 0 0-6.861-8.089zM84.537 46.959 61.576 18.697a7.5 7.5 0 1 0-11.641 9.459l22.961 28.262a7.487 7.487 0 0 0 5.825 2.771 7.5 7.5 0 0 0 5.816-12.23zM116.023.114c-4.077-.718-7.966 2.017-8.679 6.097l-5.765 32.987a7.5 7.5 0 0 0 7.397 8.792 7.5 7.5 0 0 0 7.379-6.21l5.765-32.987a7.5 7.5 0 0 0-6.097-8.679z" fill="#d21011" data-original="#000000" opacity="1" class=""></path></g></svg>