<svg xmlns="http://www.w3.org/2000/svg" version="1.1" xmlns:xlink="http://www.w3.org/1999/xlink" xmlns:svgjs="http://svgjs.com/svgjs" width="512" height="512" x="0" y="0" viewBox="0 0 467.992 467.992" style="enable-background:new 0 0 512 512" xml:space="preserve" class=""><g><path fill="#f18591" d="M456.25 465.991H136.58c20.09-37.13 18.72-95.18 18.72-95.18L66.66 140.71S31.37-93.61 249.92 46.84c68.48-.829 256.99 55.481 206.33 419.151z" data-original="#c5c5fe" class="" opacity="1"></path><path fill="#df5a69" d="M456.25 465.991H386.2c1.04-3.93 2.19-7.94 3.45-12 72-232.84-100.01-244.03-100.01-244.03 96.89-59.22 8.99-128.69 8.99-128.69-17.5-13.38-33.7-24.79-48.71-34.43 68.48-.83 256.99 55.48 206.33 419.15z" data-original="#a3a3f5" class="" opacity="1"></path><path fill="#ffebd4" d="M314.5 465.991H191.58c8.88-21.9 13.06-63.8 13.15-64.69 0 0 0-.01-.01 0-59.75-13.109-84.6-91.22-84.6-91.22l-4.2-41.5 134.43-54.59 108.23 50.64c0-.001 13.55 124.09-44.08 201.36z" data-original="#ffebd4" class=""></path><path fill="#fbf5f7" d="M181.55 267.01c-67.65-14.63-61.43 43.07-61.43 43.07s-30.07 7.54-63.53-1.31c-9.07-2.391-18.4-6-27.44-11.29-21.73-12.71-27-42.101-25.72-68.87 1.22-25.42 8.35-48.47 12.89-52.63 9.33-8.53 38.88-27.63 63.37-43.891 16.67-11.06 32.27-22.5 55.23-25.859 2.999 0 17.847-4.324 53.19 4.93 0 0 .2.04.55.14 20.25 5.311 40.67 13.091 56.46 19.761 19.76 8.34 34.54 26.029 39.77 47.62 19.615 81.084-23.414 105.606-103.34 88.329z" data-original="#fbf5f7"></path><path fill="#ede3e7" d="M181.55 267.01c-67.65-14.63-61.43 43.07-61.43 43.07s-30.07 7.54-63.53-1.31c-9.07-2.391-18.4-6-27.44-11.29-21.73-12.71-27-42.101-25.72-68.87 34.21-14.72 84.53-25.32 143.01-32.62 73.89-9.23 117.65-2.3 142.61 6.45 7.11 72.491-52.03 76.56-107.5 64.57z" data-original="#ede3e7" class=""></path><path fill="#580f0f" d="M210.32 164.061c-2.08 48.22-14 77.479-48.21 83.979-34.21 6.51-57.54 18.431-74.13 36.851-10.35 11.5-20.1 19.42-31.39 23.88-9.07-2.391-18.4-6-27.44-11.29-42.37-24.78-22.16-112.971-12.83-121.5 9.33-8.53 38.88-27.63 63.37-43.891 16.67-11.06 32.27-22.5 55.23-25.859 2.999 0 17.847-4.324 53.19 4.93 0 0 .2.04.55.14 3.6 1.05 23.54 8.88 21.66 52.76z" data-original="#404077" class="" opacity="1"></path><path fill="#d21011" d="M127.38 233.411c-49.24 16.26-57.02 44.7-98.23 64.07-42.37-24.78-22.16-112.971-12.83-121.5 9.33-8.53 38.88-27.63 63.37-43.891 16.67-11.06 32.27-22.5 55.23-25.859 19.945 0 34.45 12.881 34.45 39.41 0 41.72 7.26 71.52-41.99 87.77zM359.42 318.821c1.61-31.74-.84-54.19-.84-54.19l-88.33-34.64c-48.08-37.13-8.9-70.89-8.9-70.89s91.09 40.859 130.92 69.55c34.888 25.132 16.503 86.753-32.85 90.17z" data-original="#52528c" class="" opacity="1"></path><path fill="#580f0f" d="M406.46 284.54c-7.04 17.811-23.5 32.65-47.04 34.28 1.61-31.74-.84-54.19-.84-54.19 24.808 9.949 14.064 5.499 47.88 19.91z" data-original="#404077" class="" opacity="1"></path><path fill="#ffd5b8" d="M289.33 379.651s-1.35 46.71-20.84 86.34h-76.91c8.88-21.9 13.06-63.8 13.15-64.69 22.88 5.01 50.9.48 84.6-21.65z" data-original="#ffd5b8" class=""></path><path d="M395.106 113.546c-40.165-45.587-96.615-69.125-144.609-68.712C182.1.983 131.241-10.776 99.321 9.888 78.963 23.068 66.529 49.989 63.364 87.74c-2.066 24.637.442 46.595 1.145 51.997-20.852 13.783-41.837 27.727-49.539 34.768-10.24 9.362-30.514 99.153 13.17 124.703 21.66 12.67 45.07 15.799 62.918 15.798 13.459 0 23.756-1.78 27.746-2.592 7.006 19.828 19.374 42.337 34.505 59.135.063 6.613-.049 59.412-18.488 93.49-.725 1.34.258 2.952 1.757 2.952.711 0 1.399-.379 1.761-1.048 16.886-31.208 18.822-76.118 18.976-91.141 13.677 13.895 28.986 23.095 45.24 27.048-.908 8.283-5.094 43.314-12.828 62.389a2.002 2.002 0 0 0 1.853 2.753 2.003 2.003 0 0 0 1.854-1.249c7.855-19.374 12.002-53.416 13.054-63.044 29.437 5.6 58.67-5.782 83.942-22.378a2.001 2.001 0 0 0-2.196-3.344c-25.195 16.546-54.68 27.987-84.038 21.152-55.749-12.979-80.62-84.999-82.102-89.446-.835-11.872 2.523-25.814 11.75-34.099 10.032-9.008 25.939-11.239 47.283-6.619 58.353 12.612 95.131 2.236 106.593-29.978l68.988 27.055c.366 3.95 1.454 17.445 1.231 36.136-.635 55.428-12.033 118.354-45.043 162.617-.988 1.324-.027 3.195 1.602 3.195.61 0 1.212-.278 1.604-.805 33.044-44.307 42.861-103.795 45.217-146.527 49.716-4.927 68.281-67.576 32.121-93.633-27.781-20.012-80.881-46.136-110.32-60.045-7.246-17.274-20.431-30.672-37.223-37.763-18.935-7.997-46.888-18.561-72.522-23.472-44.973-8.617-67.281 6.294-90.9 22.082-4.145 2.774-8.648 5.75-14.236 9.442-1.948-16.842-8.762-96.831 33.26-124.028 51.814-33.536 146.758 32.03 195.917 69.614a2 2 0 0 0 2.43-3.178c-14.964-11.441-29.41-21.76-43.032-30.74 39.241 1.485 93.395 19.7 135.29 67.252 63.515 72.089 84.43 189.686 62.164 349.523a2 2 0 0 0 3.962.552c16.406-117.767 15.73-263.219-63.124-352.718zm-4.003 116.726c33.016 23.788 16.02 81.322-29.58 86.349.733-14.911.596-33.598-.656-48.921l16.67 6.686a2 2 0 1 0 1.489-3.713l-19.7-7.9-.006-.002c-1.311-.456 12.487 4.896-88.07-34.538-14.863-11.542-22.579-23.839-22.933-36.553-.429-15.364 10.208-27.034 13.431-30.207 10.94 4.961 92.626 42.342 129.355 68.799zM84.699 131.155c22.917-15.319 44.566-29.791 87.924-21.48 25.292 4.847 52.961 15.307 71.719 23.229 14.438 6.097 26.046 17.16 33.166 31.438-9.261-4.334-15.11-6.965-15.338-7.067a2.004 2.004 0 0 0-2.124.31c-.664.573-16.263 14.248-15.729 34.167.376 14.051 8.691 27.448 24.712 39.821.331.256-.857-.25 14.983 5.962-13.433 38.01-62.73 36.02-102.04 27.521-22.684-4.902-39.784-2.357-50.824 7.574-13.09 11.776-13.405 30.069-13.143 35.869-8.733 1.787-50.937 8.847-87.846-12.744-17.03-9.96-22.567-30.545-24.213-46.059-3.375-31.81 6.598-67.554 11.723-72.238 9.896-9.049 43.539-30.601 67.03-46.303z" fill="#000000" data-original="#000000" class=""></path><path d="M64.56 275.679c.463 0 .929-.16 1.307-.487 17.704-15.315 31.436-29.744 62.142-39.879 50.675-16.727 43.36-48.586 43.36-89.676a2 2 0 0 0-4 0c0 42.869 7.003 70.159-40.614 85.877-31.49 10.395-46.38 25.839-63.504 40.652-1.406 1.217-.529 3.513 1.309 3.513z" fill="#000000" data-original="#000000" class=""></path><path d="M86.496 283.549c-1.167 1.297-.224 3.339 1.486 3.339.547 0 1.092-.223 1.487-.661 16.558-18.385 39.76-29.896 73.017-36.224 32.602-6.194 47.506-31.872 49.834-85.859.16-3.74.168-7.365.022-10.772a2 2 0 1 0-3.996.17c.14 3.295.133 6.804-.022 10.431-2.233 51.768-16.165 76.321-46.586 82.102-34.16 6.499-58.069 18.407-75.242 37.474z" fill="#000000" data-original="#000000" class=""></path></g></svg>